<svg width="1867" height="217" viewBox="0 0 1867 217" fill="none" xmlns="http://www.w3.org/2000/svg">
<g clip-path="url(#clip0_1615_84)">
<path d="M340.1 216.32C340.044 216.32 339.993 216.32 339.937 216.32C328.851 216.259 318.969 210.024 314.144 200.043L281.852 133.244L247.417 200.379C242.378 210.206 232.067 216.311 220.509 216.311C208.952 216.311 198.64 210.206 193.601 200.379L159.167 133.244L126.875 200.043C122.05 210.024 112.168 216.259 101.082 216.32C101.026 216.32 100.974 216.32 100.918 216.32C89.8977 216.32 80.02 210.206 75.1115 200.328L4.19964 57.7316C-1.98264 45.2979 -1.30609 30.8354 6.01 19.036C13.2748 7.31579 25.8213 0.320068 39.5716 0.320068H85.3064C104.978 0.320068 122.792 11.2287 131.797 28.7927L158.537 80.9248L187.685 20.6357C193.769 8.05268 206.036 0.534604 220.5 0.534604C234.964 0.534604 247.231 8.04801 253.315 20.6357L282.463 80.9248L309.203 28.7927C318.208 11.2287 336.022 0.320068 355.694 0.320068H401.428C415.179 0.320068 427.725 7.31579 434.99 19.036C442.306 30.8354 442.983 45.2979 436.8 57.7316L365.903 200.328C360.994 210.201 351.116 216.315 340.096 216.32H340.1ZM295.182 107.238L335.145 189.895C336.489 192.679 339.032 192.992 340.063 192.996C341.089 192.996 343.637 192.716 345.013 189.946L415.911 47.35C418.51 42.1219 418.24 36.2781 415.165 31.3158C412.141 26.4374 407.135 23.6392 401.433 23.6392H355.698C344.822 23.6392 334.963 29.6881 329.966 39.4308L295.187 107.238H295.182ZM39.5716 23.6392C33.8699 23.6392 28.8634 26.4374 25.8399 31.3158C22.7651 36.2781 22.4898 42.1219 25.0934 47.35L95.9866 189.946C97.363 192.716 99.9246 192.992 100.937 192.996C101.968 192.992 104.511 192.675 105.855 189.895L145.818 107.238L111.039 39.4308C106.042 29.6928 96.1826 23.6392 85.3064 23.6392H39.5716ZM171.877 106.93L214.35 189.741C215.895 192.758 219.45 192.992 220.5 192.992C221.848 192.992 225.147 192.675 226.65 189.741L269.123 106.93L232.309 30.7841C229.286 24.5299 223.043 23.8584 220.5 23.8584C217.957 23.8584 211.714 24.5346 208.691 30.7841L171.877 106.93Z" fill="white"/>
<path fill-rule="evenodd" clip-rule="evenodd" d="M1866.92 197.96C1864.74 197.963 1862.57 197.959 1860.39 197.955H1860.39C1854.35 197.945 1848.3 197.935 1842.26 198.06C1840.18 198.1 1839.08 197.21 1838.11 195.69C1827.64 179.27 1817.17 162.85 1806.69 146.43C1806.36 145.916 1806.01 145.417 1805.59 144.833L1805.41 144.573L1805.32 144.456L1805.2 144.277C1805.05 144.076 1804.91 143.865 1804.75 143.64C1803.36 145.243 1802.02 146.848 1800.69 148.436L1800.69 148.441L1800.69 148.442C1797.73 151.985 1794.85 155.443 1791.65 158.59C1786.89 163.28 1785.05 168.42 1785.61 175.06C1785.96 179.172 1785.89 183.318 1785.81 187.468C1785.77 190.02 1785.73 192.573 1785.78 195.12C1785.83 197.44 1785.07 198.09 1782.83 198.03C1777.35 197.89 1771.86 197.82 1766.39 198.05C1763.46 198.17 1762.91 197.1 1762.92 194.41C1762.98 153.561 1762.97 112.718 1762.97 71.8717C1762.97 62.7514 1762.97 53.6309 1762.97 44.51V14.38C1764.51 14.38 1766.04 14.3782 1767.56 14.3764C1773.2 14.3698 1778.69 14.3633 1784.18 14.45C1784.7 14.45 1785.42 15.45 1785.67 16.13C1785.85 16.6318 1785.81 17.2114 1785.77 17.7908V17.7908V17.7909V17.791V17.7911V17.7912V17.7913V17.7914V17.7915V17.7916C1785.75 18.0432 1785.73 18.2948 1785.73 18.54V132.56V137C1791.29 130.13 1796.21 124.04 1801.13 117.94C1803.85 114.566 1806.57 111.19 1809.3 107.815L1809.33 107.767L1809.39 107.696L1809.49 107.577L1809.64 107.387L1809.93 107.034C1817.9 97.1448 1825.87 87.2564 1833.87 77.4C1834.5 76.62 1835.58 75.7 1836.46 75.69C1843.16 75.5887 1849.87 75.5967 1856.97 75.6052H1856.97H1856.97H1856.97H1856.98H1856.98C1858.99 75.6076 1861.03 75.61 1863.11 75.61C1861.88 77.048 1860.72 78.4048 1859.61 79.7114L1859.52 79.8145L1859.48 79.8686L1859.41 79.9437C1857.73 81.9216 1856.14 83.7876 1854.54 85.65C1852.48 88.0517 1850.42 90.4524 1848.35 92.8529L1848.02 93.2388C1839.2 103.503 1830.38 113.764 1821.63 124.09C1821.07 124.75 1820.93 126.45 1821.38 127.16C1834.28 147.17 1847.28 167.11 1860.29 187.05C1861.78 189.327 1863.33 191.566 1864.89 193.803C1865.56 194.778 1866.24 195.752 1866.91 196.73V197.95L1866.92 197.96ZM726.3 26.4601C725.385 29.6621 724.479 32.8294 723.581 35.971C720.936 45.2209 718.355 54.2477 715.78 63.2801C712.63 74.3349 709.488 85.3922 706.345 96.4495C703.203 107.507 700.06 118.565 696.91 129.62C692.07 146.59 687.21 163.55 682.33 180.51C680.83 185.74 679.3 190.96 677.65 196.14C677.42 196.88 676.42 197.89 675.76 197.9C669.983 198.002 664.207 197.993 658.349 197.985H658.347H658.335C656.703 197.982 655.066 197.98 653.42 197.98C648.369 178.783 643.328 159.631 638.293 140.503L637.981 139.316L637.904 139.026L637.877 138.924C631.698 115.447 625.527 92.0048 619.36 68.5601L619.36 68.5601C619.11 68.5901 618.86 68.6201 618.61 68.6401C617.189 73.6726 615.774 78.7062 614.359 83.7394L614.356 83.7481L614.355 83.751L614.355 83.7539L614.354 83.7568L614.353 83.7597L614.352 83.7626L614.351 83.7655L614.351 83.7684L614.35 83.7714L614.349 83.7743C611.457 94.0617 608.566 104.348 605.62 114.62C602.883 124.168 600.108 133.707 597.333 143.247L597.33 143.258L597.329 143.261L597.328 143.263L597.327 143.266L597.326 143.269L597.325 143.272L597.325 143.275L597.324 143.278L597.323 143.28C594.951 151.434 592.579 159.589 590.23 167.75C587.64 176.76 585.09 185.79 582.68 194.85C582.07 197.15 581.21 198.14 578.61 198.05C573.954 197.894 569.287 197.924 564.462 197.955C562.469 197.967 560.448 197.98 558.39 197.98C545.682 151.705 532.98 105.462 520.216 58.9911L511.28 26.4601C513.144 26.4601 514.983 26.4572 516.803 26.4545L516.804 26.4545C523.393 26.4444 529.734 26.4347 536.08 26.5601C536.81 26.5701 537.9 27.9501 538.16 28.8701C539.924 35.2988 541.623 41.744 543.322 48.1899L543.322 48.1903L543.322 48.1918C544.271 51.7919 545.22 55.3923 546.18 58.9901C548.295 66.8897 550.418 74.7876 552.541 82.6859L552.543 82.6909C555.58 93.9878 558.617 105.285 561.63 116.59C563.532 123.724 565.402 130.869 567.271 138.014C568.518 142.777 569.764 147.54 571.02 152.3C571.128 152.711 571.303 153.102 571.582 153.724L571.582 153.724L571.583 153.726C571.745 154.087 571.942 154.525 572.18 155.09C572.513 153.984 572.824 152.977 573.114 152.033L573.115 152.032L573.115 152.031L573.117 152.023L573.118 152.023L573.118 152.023C573.68 150.197 574.169 148.61 574.61 147.01C576.551 139.976 578.484 132.938 580.416 125.9L580.417 125.897L580.419 125.893L580.42 125.889L580.421 125.886L580.422 125.882L580.423 125.878L580.424 125.874L580.425 125.871L580.426 125.867L580.427 125.862L580.428 125.858L580.429 125.853L580.431 125.849L580.432 125.844L580.433 125.84L580.435 125.835L580.436 125.831L580.437 125.826C583.067 116.249 585.697 106.671 588.35 97.1001C594.41 75.2301 600.52 53.3801 606.64 31.5201C608.057 26.45 608.11 26.45 613.518 26.4501H613.55C614.935 26.4501 616.319 26.4576 617.704 26.4652L617.705 26.4652C621.09 26.4838 624.475 26.5023 627.86 26.4101C629.72 26.3601 630.69 27.0301 631.14 28.7601C631.861 31.5226 632.582 34.2851 633.302 37.0476L633.303 37.0514C635.918 47.0772 638.533 57.1017 641.19 67.1201C643.569 76.0788 645.971 85.0319 648.372 93.9853L648.373 93.9859L648.373 93.9876L648.374 93.9905L648.375 93.9943L648.376 93.998L648.377 94.0018L648.378 94.0055L648.379 94.0093L648.38 94.0131L648.381 94.0168L648.382 94.0206L648.383 94.0243C650.5 101.918 652.618 109.812 654.72 117.71C656.689 125.112 658.639 132.517 660.589 139.922L660.6 139.963C661.805 144.539 663.011 149.115 664.22 153.69C664.26 153.838 664.329 153.976 664.466 154.251C664.57 154.458 664.712 154.744 664.91 155.17C665.263 154.055 665.604 153.012 665.93 152.013L665.931 152.012L665.931 152.012C666.577 150.036 667.165 148.236 667.67 146.41C670.357 136.737 673.021 127.061 675.686 117.383C677.385 111.212 679.085 105.041 680.79 98.8701C682.908 91.2168 685.027 83.5646 687.147 75.9124L687.148 75.9112C691.384 60.6171 695.621 45.323 699.84 30.0201C700.52 27.5501 701.5 26.2101 704.58 26.3501C709.564 26.5827 714.563 26.537 719.73 26.4898C721.894 26.4701 724.086 26.4501 726.32 26.4501L726.3 26.4601ZM1504.53 161.14C1503.82 163.798 1503.11 166.455 1502.41 169.11L1502.39 169.1L1501.73 169.16C1501.4 167.946 1501.07 166.731 1500.74 165.516L1500.74 165.511L1500.74 165.505C1500.27 163.772 1499.8 162.038 1499.34 160.3C1494.48 141.86 1489.63 123.41 1484.79 104.96C1484.17 102.615 1483.56 100.269 1482.95 97.9235L1482.95 97.9193L1482.95 97.9154L1482.95 97.9112L1482.95 97.9073L1482.95 97.9037L1482.95 97.9005L1482.95 97.8977L1482.95 97.8948C1481.2 91.1753 1479.45 84.4562 1477.59 77.77C1477.34 76.88 1475.91 75.73 1475 75.71C1468.21 75.54 1461.41 75.56 1454.61 75.71C1453.79 75.72 1452.51 76.79 1452.27 77.61C1447.96 92.1 1443.74 106.63 1439.56 121.16C1437.56 128.124 1435.58 135.09 1433.6 142.056L1433.59 142.12L1433.57 142.184C1431.59 149.15 1429.61 156.116 1427.61 163.08C1427.24 164.355 1426.78 165.608 1426.25 167.059L1426.25 167.062L1426.24 167.083L1426.23 167.118C1425.97 167.823 1425.69 168.576 1425.4 169.4C1424.53 165.946 1423.68 162.58 1422.85 159.273C1421.09 152.317 1419.4 145.623 1417.76 138.92C1412.81 118.72 1407.87 98.52 1403.07 78.29C1402.55 76.12 1401.69 75.58 1399.62 75.58C1392.52 75.6118 1385.41 75.6127 1378.31 75.6135H1378.31C1369.78 75.6145 1361.26 75.6155 1352.73 75.67C1350.31 75.69 1349.6 74.96 1349.66 72.58C1349.77 68.166 1349.75 63.7469 1349.73 59.3299V59.3289V59.3278V59.3268V59.3257V59.3247V59.3236V59.3226V59.3215C1349.72 57.5572 1349.71 55.7932 1349.71 54.03C1349.71 48.7767 1347.03 46.15 1341.68 46.15H1327.16V75.67H1311.07V95.6H1327.3V99.51C1327.3 104.798 1327.29 110.085 1327.28 115.373C1327.25 129.345 1327.22 143.318 1327.39 157.29C1327.46 163.42 1328.04 169.64 1329.3 175.63C1331.34 185.34 1336.9 192.78 1346.15 196.87C1359.18 202.62 1372.19 201.34 1385.02 195.99C1385.71 195.7 1386.59 194.36 1386.42 193.81C1385.1 189.542 1383.66 185.31 1382.23 181.117L1382.19 180.991L1382.02 180.491L1381.7 179.559C1381.45 178.822 1381.2 178.085 1380.95 177.35C1379.76 177.679 1378.63 178.019 1377.52 178.35C1375.24 179.033 1373.1 179.675 1370.91 180.1C1362.04 181.82 1355.21 178.64 1352.13 171.12C1350.96 168.27 1350.17 165.05 1350.13 161.99C1349.95 147.744 1349.89 133.494 1349.82 119.245V119.242V119.24V119.237V119.235V119.233V119.23V119.228V119.225C1349.79 112.096 1349.76 104.968 1349.71 97.84C1349.7 96.11 1350.35 95.56 1352.03 95.56C1355.4 95.5737 1358.78 95.5733 1362.15 95.573C1368.62 95.5722 1375.09 95.5714 1381.56 95.67C1382.44 95.68 1383.84 96.84 1384.09 97.72C1388.38 112.65 1392.54 127.62 1396.68 142.59C1398.21 148.112 1399.73 153.638 1401.25 159.163L1401.25 159.165L1401.25 159.168L1401.25 159.17L1401.25 159.172L1401.25 159.174L1401.25 159.177L1401.25 159.179L1401.26 159.181C1404.63 171.44 1408.01 183.702 1411.46 195.94C1411.7 196.8 1413.21 197.87 1414.15 197.89C1421.15 198.06 1428.15 198.06 1435.15 197.89C1436.03 197.87 1437.36 196.71 1437.66 195.8C1439.34 190.73 1440.81 185.58 1442.26 180.44C1445.38 169.415 1448.48 158.39 1451.59 147.365C1454.7 136.34 1457.81 125.315 1460.92 114.29C1461.5 112.212 1462.14 110.147 1462.85 107.878C1463.23 106.653 1463.62 105.368 1464.04 103.99C1464.28 104.38 1464.46 104.651 1464.6 104.852L1464.6 104.853C1464.79 105.152 1464.89 105.299 1464.94 105.46C1465.97 109.148 1467 112.835 1468.04 116.521L1468.08 116.669C1471.09 127.41 1474.09 138.149 1477.07 148.9C1481.38 164.46 1485.66 180.02 1489.85 195.61C1490.34 197.45 1491.14 198.04 1492.97 198.02C1499.46 197.95 1505.96 197.96 1512.45 198.02C1514.24 198.04 1515.12 197.54 1515.59 195.62C1516.79 190.726 1518.2 185.888 1519.6 181.048C1519.77 180.459 1519.94 179.87 1520.11 179.28C1524.91 162.669 1529.73 146.075 1534.56 129.474L1535.71 125.52C1536.96 121.224 1538.22 116.933 1539.48 112.643L1539.48 112.63L1539.49 112.615L1539.49 112.597L1539.5 112.577L1539.5 112.554L1539.51 112.528L1539.52 112.496L1539.53 112.465C1541.18 106.849 1542.83 101.234 1544.45 95.61C1545.78 90.9865 1547.06 86.348 1548.37 81.5955L1548.38 81.5637C1548.92 79.6042 1549.46 77.6253 1550.02 75.62C1548.38 75.62 1546.76 75.617 1545.15 75.614C1539.58 75.6037 1534.16 75.5936 1528.74 75.71C1528.02 75.73 1526.92 76.9 1526.7 77.72C1524.45 85.9678 1522.27 94.2262 1520.09 102.487C1519.29 105.545 1518.48 108.602 1517.67 111.66C1515.84 118.58 1514 125.498 1512.16 132.415C1510.32 139.333 1508.48 146.25 1506.65 153.17L1506.43 154.011L1505.82 156.278C1505.39 157.893 1504.96 159.508 1504.53 161.123L1504.53 161.14ZM1150.9 26.7001V153.639C1150.53 153.212 1150.23 152.883 1149.99 152.615C1149.55 152.127 1149.29 151.839 1149.07 151.53C1147.2 149.001 1145.33 146.471 1143.45 143.942L1143 143.334C1133.91 131.055 1124.82 118.774 1115.75 106.48L1111.24 100.366C1093.56 76.4237 1075.88 52.4781 1058.27 28.4901C1057.08 26.8601 1055.85 26.3801 1053.98 26.4201C1049.11 26.5201 1044.23 26.6201 1039.37 26.3901C1036.44 26.2501 1035.84 27.3501 1035.85 30.0501C1035.92 48.2655 1035.91 66.4752 1035.9 84.6879V84.6888V84.6896V84.6905V84.6914V84.6923V84.6932V84.694C1035.9 90.2957 1035.9 95.8976 1035.9 101.5C1035.9 108.025 1035.9 114.55 1035.9 121.074C1035.91 145.56 1035.92 170.045 1035.83 194.53C1035.81 197.43 1036.71 198.14 1039.43 198.04C1043.25 197.905 1047.07 197.932 1050.9 197.958C1052.45 197.969 1054.01 197.98 1055.56 197.98C1058.4 197.98 1059.82 196.557 1059.82 193.71C1059.82 154.6 1059.82 115.48 1059.83 76.3601C1059.83 75.5835 1059.9 74.8069 1059.99 73.7944C1060.05 73.1903 1060.11 72.5022 1060.17 71.6801C1060.62 72.2222 1061 72.6725 1061.33 73.0649C1061.96 73.8161 1062.42 74.3552 1062.84 74.9201C1071.83 87.117 1080.81 99.3206 1089.8 111.523C1096.19 120.21 1102.58 128.897 1108.98 137.58C1123.34 157.09 1137.71 176.59 1152.11 196.07C1152.67 196.83 1153.57 197.85 1154.33 197.87C1159.45 197.978 1164.57 197.967 1169.72 197.956C1171.27 197.953 1172.82 197.95 1174.38 197.95V26.7001H1150.9ZM892.4 179.29C875.14 173.23 866.79 154.6 867.28 142.62L867.26 142.61H870.79C876.815 142.61 882.84 142.608 888.864 142.607C911.456 142.6 934.043 142.593 956.63 142.68C959.39 142.69 960.5 141.82 960.55 139.2C960.579 137.682 960.639 136.164 960.7 134.646C960.808 131.914 960.917 129.182 960.84 126.45C960.44 111.81 955.48 98.7801 944.95 88.5901C928.41 72.5801 908.53 68.8601 886.85 75.5201C864.59 82.3601 851.75 98.4301 846.03 120.34C842.7 133.1 843.54 146.03 847.19 158.72C850.76 171.1 857.3 181.55 867.66 189.38C881.17 199.58 896.62 201.88 913.07 200.62C931.18 199.23 945.47 191.33 955.98 176.63C956.239 176.266 956.479 175.934 956.7 175.628L956.707 175.618C958.086 173.705 958.694 172.862 958.523 172.231C958.388 171.734 957.772 171.367 956.672 170.713C956.097 170.37 955.39 169.949 954.55 169.39C951.808 167.562 948.997 165.833 946.183 164.102L946.183 164.102L946.183 164.102L946.182 164.102L946.182 164.102L946.182 164.102L946.181 164.101L946.18 164.1L946.179 164.1L946.178 164.099L946.178 164.099L946.177 164.099C944.99 163.369 943.803 162.638 942.62 161.9C931.33 182.24 907.47 184.58 892.4 179.29ZM869.426 124.155C869.233 124.089 868.986 124.006 868.65 123.91H868.64C872.26 110.8 878.62 99.9501 891.54 94.6701C912.78 85.9901 934.32 98.8401 937.35 121.52C937.62 123.54 937.28 124.36 935.19 124.36C922.162 124.342 909.134 124.335 896.106 124.328C887.424 124.323 878.742 124.318 870.06 124.31C869.886 124.31 869.716 124.253 869.426 124.155ZM1290.21 164.031L1290.22 164.038L1290.22 164.04L1290.23 164.042C1294.04 166.439 1297.71 168.751 1301.3 171.18C1301.88 171.57 1302.19 173.42 1301.78 174.04C1293.78 186.31 1283.12 195.04 1268.62 198.69C1257.21 201.57 1245.68 201.96 1234.28 199.52C1215.83 195.56 1202.47 184.82 1194.57 167.55C1188.12 153.45 1186.55 138.53 1189.52 123.63C1194.19 100.24 1207.31 83.2701 1230.68 75.5301C1256.56 66.9701 1286.59 76.5001 1299.37 103.15C1305.08 115.05 1306.51 127.7 1304.25 140.71C1304.12 141.44 1302.98 142.17 1302.15 142.54C1301.68 142.749 1301.08 142.701 1300.49 142.652C1300.24 142.631 1299.98 142.61 1299.74 142.61C1293.05 142.61 1286.37 142.612 1279.68 142.615C1257.96 142.622 1236.23 142.629 1214.51 142.56C1211.65 142.56 1210.62 143.37 1211.17 146.21C1213.42 158.03 1218.31 168.24 1228.62 175.22C1237.97 181.55 1248.29 182.58 1259.13 180.91C1268.83 179.42 1276.92 175.16 1282.97 167.33C1283.83 166.219 1284.6 165.045 1285.44 163.784C1285.85 163.161 1286.27 162.518 1286.73 161.85H1286.75C1287.89 162.571 1289.01 163.279 1290.13 163.98L1290.21 164.031ZM1213.63 124.169C1213.35 124.104 1213 124.026 1212.55 123.941C1212.95 122.884 1213.31 121.836 1213.67 120.802L1213.68 120.785L1213.68 120.78L1213.68 120.779L1213.68 120.779L1213.68 120.778L1213.68 120.778C1214.45 118.555 1215.2 116.397 1216.19 114.35C1223.09 100.04 1233.99 91.6001 1250.48 92.0801C1263.49 92.4601 1272.44 99.3201 1278.09 110.61C1279.38 113.196 1280.12 116.068 1280.85 118.928L1280.85 118.929L1280.85 118.93L1280.85 118.931L1280.85 118.931C1281.1 119.886 1281.34 120.839 1281.61 121.78C1282.09 123.47 1281.43 124.38 1279.44 124.38C1266.5 124.356 1253.55 124.354 1240.6 124.351H1240.59H1240.59H1240.59C1231.95 124.35 1223.32 124.348 1214.68 124.34C1214.39 124.34 1214.09 124.272 1213.63 124.169ZM1674.44 138.94C1675.53 100.51 1646.47 72.14 1611.99 72.63L1611.98 72.64C1576.57 72.3 1549.29 100.3 1549.2 136.9C1549.12 172.99 1576.5 200.94 1611.59 201.02C1647.91 201.1 1673.48 172.6 1674.44 138.94ZM1643.57 110.57C1648.91 118.52 1651.34 127.34 1651.48 138.53V138.54C1650.63 153.77 1644.58 167.88 1628.9 176.02C1612.02 184.79 1592.47 179.73 1581.17 164.32C1567.14 145.18 1569.81 117.6 1587.66 102.28C1604.4 87.9 1630.38 90.96 1643.57 110.57ZM849.09 74.2901C828.662 68.5835 815.206 77.3298 804.509 93.4815C804.49 93.1533 804.467 92.8252 804.444 92.4971C804.392 91.7614 804.34 91.0258 804.34 90.2901C804.334 88.9517 804.338 87.6123 804.341 86.2725V86.2721V86.2716V86.2712C804.35 83.4571 804.358 80.6413 804.27 77.8301C804.24 77.0801 803.4 75.7201 802.92 75.7201C797.284 75.6148 791.648 75.621 786.043 75.6272C784.727 75.6287 783.412 75.6301 782.1 75.6301C782.037 75.871 781.98 76.0631 781.933 76.2231C781.845 76.5214 781.79 76.7079 781.79 76.8901C781.783 90.1102 781.779 103.33 781.774 116.55C781.766 142.95 781.757 169.35 781.73 195.75C781.72 197.48 782.35 198.03 784.04 198.01C784.353 198.006 784.666 198.002 784.979 197.998C785.413 197.992 785.848 197.985 786.282 197.979C791.015 197.912 795.746 197.844 800.47 198.06C803.54 198.2 804.41 197.34 804.39 194.21C804.26 169.18 804.27 144.15 804.4 119.12C804.41 117.06 805.34 114.84 806.34 112.97C807.52 110.77 809.14 108.77 810.76 106.84C818.52 97.6101 828.28 93.8601 840.23 96.4001C841.238 96.6137 842.223 96.9253 843.303 97.2665C843.84 97.4365 844.401 97.6138 845 97.7901C846.392 89.7729 847.716 82.1749 849.039 74.5821L849.062 74.4522L849.065 74.4315L849.09 74.2901ZM1685.48 75.74H1685.47L1685.48 75.72V75.74ZM1685.48 75.74H1707.98V93.78C1713.55 86.57 1718.98 79.77 1727.04 75.61C1735.31 71.35 1743.85 72.21 1752.75 74.06C1752.55 75.3749 1752.36 76.6782 1752.17 77.9734L1752.17 77.9818C1751.77 80.6829 1751.38 83.3488 1750.95 86.01C1750.7 87.5628 1750.41 89.108 1750.12 90.652L1750.12 90.6538L1750.11 90.6552C1749.83 92.1826 1749.54 93.7089 1749.29 95.24C1748.99 97.08 1748.39 98 1746.28 97.26C1735.2 93.35 1723 96.68 1715.49 105.59C1715.33 105.775 1715.18 105.96 1715.02 106.145C1714.06 107.268 1713.11 108.391 1712.21 109.55C1709.3 113.3 1707.78 117.27 1707.84 122.32C1708.02 137.028 1708.01 151.74 1708 166.452C1707.99 175.865 1707.99 185.278 1708.03 194.69C1708.04 197.44 1707.22 198.14 1704.59 198.04C1699.22 197.85 1693.83 197.83 1688.46 198.04C1685.63 198.16 1685.44 196.85 1685.44 194.59C1685.48 163.399 1685.48 132.207 1685.48 101.016C1685.48 95.8172 1685.48 90.6186 1685.48 85.42V75.74ZM738.07 75.6101C739.648 75.6101 741.209 75.6071 742.756 75.6041C748.109 75.5938 753.298 75.5837 758.48 75.7001C759.15 75.7101 759.97 76.8201 760.4 77.6001C760.608 77.9741 760.557 78.4967 760.505 79.0185C760.483 79.2503 760.46 79.4818 760.46 79.7001C760.46 87.3176 760.459 94.9355 760.458 102.554V102.554C760.453 133.029 760.448 163.508 760.52 193.98C760.52 197.07 759.88 198.27 756.54 198.08C751.706 197.804 746.846 197.909 742 198.013L741.99 198.013C741.567 198.022 741.143 198.031 740.72 198.04C738.74 198.08 737.84 197.68 737.84 195.4C737.893 161.095 737.891 126.79 737.89 92.4914C737.89 87.5875 737.89 82.6837 737.89 77.7801C737.89 77.399 737.928 77.0221 737.976 76.5388L737.976 76.5384L737.976 76.5374C738.002 76.2729 738.032 75.9765 738.06 75.6301L738.07 75.6101ZM737.897 46.9871C737.898 48.6041 737.9 50.2371 737.9 51.8901V51.8801C739.484 51.8801 741.047 51.8825 742.593 51.8849C748.085 51.8934 753.367 51.9016 758.65 51.8001C759.26 51.7901 760.36 50.6701 760.37 50.0501C760.5 42.8601 760.51 35.6701 760.37 28.4801C760.36 27.7901 759.17 26.5601 758.51 26.5401C752.23 26.4001 745.94 26.4101 739.65 26.5401C739.05 26.5601 737.98 27.7001 737.98 28.3301C737.884 34.4661 737.89 40.6022 737.897 46.9871Z" fill="white"/>
</g>
<defs>
<clipPath id="clip0_1615_84">
<rect width="1866.92" height="216.16" fill="white" transform="translate(0 0.320068)"/>
</clipPath>
</defs>
</svg>
