<svg width="1867" height="217" viewBox="0 0 1867 217" fill="none" xmlns="http://www.w3.org/2000/svg">
<g clip-path="url(#clip0_1615_70)">
<path d="M340.1 216.16C340.044 216.16 339.993 216.16 339.937 216.16C328.851 216.099 318.969 209.864 314.144 199.883L281.852 133.083L247.417 200.219C242.378 210.046 232.067 216.151 220.509 216.151C208.952 216.151 198.64 210.046 193.601 200.219L159.167 133.083L126.875 199.883C122.05 209.864 112.168 216.099 101.082 216.16C101.026 216.16 100.974 216.16 100.918 216.16C89.8977 216.16 80.02 210.046 75.1115 200.168L4.19964 57.5716C-1.98264 45.1379 -1.30609 30.6754 6.01 18.8759C13.2748 7.15576 25.8213 0.160034 39.5716 0.160034H85.3064C104.978 0.160034 122.792 11.0687 131.797 28.6326L158.537 80.7648L187.685 20.4756C193.769 7.89264 206.036 0.37457 220.5 0.37457C234.964 0.37457 247.231 7.88798 253.315 20.4756L282.463 80.7648L309.203 28.6326C318.208 11.0687 336.022 0.160034 355.694 0.160034H401.428C415.179 0.160034 427.725 7.15576 434.99 18.8759C442.306 30.6754 442.983 45.1379 436.8 57.5716L365.903 200.168C360.994 210.041 351.116 216.155 340.096 216.16H340.1ZM295.182 107.078L335.145 189.735C336.489 192.519 339.032 192.832 340.063 192.836C341.089 192.836 343.637 192.556 345.013 189.786L415.911 47.19C418.51 41.9618 418.24 36.1181 415.165 31.1558C412.141 26.2774 407.135 23.4791 401.433 23.4791H355.698C344.822 23.4791 334.963 29.5281 329.966 39.2708L295.187 107.078H295.182ZM39.5716 23.4791C33.8699 23.4791 28.8634 26.2774 25.8399 31.1558C22.7651 36.1181 22.4898 41.9618 25.0934 47.19L95.9866 189.786C97.363 192.556 99.9246 192.832 100.937 192.836C101.968 192.832 104.511 192.514 105.855 189.735L145.818 107.078L111.039 39.2708C106.042 29.5328 96.1826 23.4791 85.3064 23.4791H39.5716ZM171.877 106.77L214.35 189.581C215.895 192.598 219.45 192.832 220.5 192.832C221.848 192.832 225.147 192.514 226.65 189.581L269.123 106.77L232.309 30.6241C229.286 24.3699 223.043 23.6983 220.5 23.6983C217.957 23.6983 211.714 24.3746 208.691 30.6241L171.877 106.77Z" fill="#3B82FF"/>
<path fill-rule="evenodd" clip-rule="evenodd" d="M1866.92 197.8C1864.74 197.803 1862.57 197.799 1860.39 197.795H1860.39C1854.35 197.785 1848.3 197.775 1842.26 197.9C1840.18 197.94 1839.08 197.05 1838.11 195.53C1827.64 179.11 1817.17 162.69 1806.69 146.27C1806.36 145.756 1806.01 145.257 1805.59 144.673L1805.41 144.413L1805.32 144.296L1805.2 144.116C1805.05 143.916 1804.91 143.705 1804.75 143.48C1803.36 145.083 1802.02 146.688 1800.69 148.276L1800.69 148.281L1800.69 148.282C1797.73 151.825 1794.85 155.283 1791.65 158.43C1786.89 163.12 1785.05 168.26 1785.61 174.9C1785.96 179.012 1785.89 183.158 1785.81 187.308C1785.77 189.859 1785.73 192.413 1785.78 194.96C1785.83 197.28 1785.07 197.93 1782.83 197.87C1777.35 197.73 1771.86 197.66 1766.39 197.89C1763.46 198.01 1762.91 196.94 1762.92 194.25C1762.98 153.401 1762.97 112.558 1762.97 71.7116C1762.97 62.5913 1762.97 53.4708 1762.97 44.35V14.22C1764.51 14.22 1766.04 14.2182 1767.56 14.2164C1773.2 14.2098 1778.69 14.2033 1784.18 14.29C1784.7 14.29 1785.42 15.29 1785.67 15.97C1785.85 16.4718 1785.81 17.0513 1785.77 17.6307V17.6308V17.6309V17.631V17.6311V17.6312V17.6313V17.6314V17.6315V17.6316C1785.75 17.8832 1785.73 18.1348 1785.73 18.38V132.4V136.84C1791.29 129.97 1796.21 123.88 1801.13 117.78C1803.85 114.406 1806.57 111.03 1809.3 107.655L1809.33 107.607L1809.39 107.536L1809.49 107.417L1809.64 107.227L1809.93 106.874C1817.9 96.9847 1825.87 87.0963 1833.87 77.24C1834.5 76.46 1835.58 75.54 1836.46 75.53C1843.16 75.4287 1849.87 75.4367 1856.97 75.4451H1856.97H1856.97H1856.97H1856.98H1856.98C1858.99 75.4475 1861.03 75.45 1863.11 75.45C1861.88 76.8879 1860.72 78.2448 1859.61 79.5514L1859.52 79.6544L1859.48 79.7085L1859.41 79.7837C1857.73 81.7616 1856.14 83.6275 1854.54 85.49C1852.48 87.8917 1850.42 90.2924 1848.35 92.6928L1848.02 93.0788C1839.2 103.343 1830.38 113.604 1821.63 123.93C1821.07 124.59 1820.93 126.29 1821.38 127C1834.28 147.01 1847.28 166.95 1860.29 186.89C1861.78 189.167 1863.33 191.406 1864.89 193.643C1865.56 194.618 1866.24 195.592 1866.91 196.57V197.79L1866.92 197.8ZM726.3 26.3C725.385 29.502 724.479 32.6694 723.581 35.8109C720.936 45.0609 718.355 54.0877 715.78 63.12C712.63 74.1748 709.488 85.2322 706.345 96.2895C703.203 107.347 700.06 118.405 696.91 129.46C692.07 146.43 687.21 163.39 682.33 180.35C680.83 185.58 679.3 190.8 677.65 195.98C677.42 196.72 676.42 197.73 675.76 197.74C669.983 197.842 664.207 197.833 658.349 197.825H658.347H658.335C656.703 197.822 655.066 197.82 653.42 197.82C648.369 178.623 643.328 159.471 638.293 140.343L637.981 139.156L637.904 138.866L637.877 138.764C631.698 115.287 625.527 91.8447 619.36 68.4L619.36 68.4001C619.11 68.43 618.86 68.46 618.61 68.48C617.189 73.5125 615.774 78.5462 614.359 83.5794L614.356 83.5881L614.355 83.591L614.355 83.5939L614.354 83.5968L614.353 83.5997L614.352 83.6026L614.351 83.6055L614.351 83.6084L614.35 83.6113L614.349 83.6142C611.457 93.9016 608.566 104.188 605.62 114.46C602.883 124.008 600.108 133.547 597.333 143.087L597.33 143.098L597.329 143.1L597.328 143.103L597.327 143.106L597.326 143.109L597.325 143.112L597.325 143.115L597.324 143.118L597.323 143.12C594.951 151.274 592.579 159.429 590.23 167.59C587.64 176.6 585.09 185.63 582.68 194.69C582.07 196.99 581.21 197.98 578.61 197.89C573.954 197.734 569.287 197.764 564.462 197.795C562.469 197.807 560.448 197.82 558.39 197.82C545.682 151.545 532.98 105.302 520.216 58.8311L511.28 26.3C513.144 26.3 514.983 26.2972 516.803 26.2944L516.804 26.2944C523.393 26.2844 529.734 26.2747 536.08 26.4C536.81 26.41 537.9 27.79 538.16 28.71C539.924 35.1388 541.623 41.584 543.322 48.0298L543.322 48.0303L543.322 48.0318C544.271 51.6319 545.22 55.2322 546.18 58.83C548.295 66.7296 550.418 74.6275 552.541 82.5259L552.543 82.5309C555.58 93.8277 558.617 105.125 561.63 116.43C563.532 123.564 565.402 130.709 567.271 137.854C568.518 142.617 569.764 147.38 571.02 152.14C571.128 152.551 571.303 152.942 571.582 153.564L571.582 153.564L571.583 153.566C571.745 153.927 571.942 154.365 572.18 154.93C572.513 153.824 572.824 152.817 573.114 151.873L573.115 151.872L573.115 151.871L573.117 151.863L573.118 151.863L573.118 151.863C573.68 150.037 574.169 148.45 574.61 146.85C576.551 139.816 578.484 132.778 580.416 125.74L580.417 125.737L580.419 125.733L580.42 125.729L580.421 125.725L580.422 125.722L580.423 125.718L580.424 125.714L580.425 125.711L580.426 125.707L580.427 125.702L580.428 125.698L580.429 125.693L580.431 125.689L580.432 125.684L580.433 125.68L580.435 125.675L580.436 125.671L580.437 125.666C583.067 116.089 585.697 106.511 588.35 96.94C594.41 75.07 600.52 53.22 606.64 31.36C608.057 26.29 608.11 26.29 613.518 26.29H613.55C614.935 26.29 616.319 26.2976 617.704 26.3052L617.705 26.3052C621.09 26.3237 624.475 26.3423 627.86 26.25C629.72 26.2 630.69 26.87 631.14 28.6C631.861 31.3626 632.582 34.1251 633.302 36.8875L633.303 36.8914C635.918 46.9172 638.533 56.9417 641.19 66.96C643.569 75.9187 645.971 84.8718 648.372 93.8253L648.373 93.8259L648.373 93.8276L648.374 93.8305L648.375 93.8343L648.376 93.838L648.377 93.8418L648.378 93.8455L648.379 93.8493L648.38 93.853L648.381 93.8568L648.382 93.8605L648.383 93.8643C650.5 101.758 652.618 109.652 654.72 117.55C656.689 124.952 658.639 132.357 660.589 139.762L660.6 139.803C661.805 144.379 663.011 148.955 664.22 153.53C664.26 153.678 664.329 153.816 664.466 154.091C664.57 154.298 664.712 154.584 664.91 155.01C665.263 153.895 665.604 152.852 665.93 151.853L665.931 151.852L665.931 151.852C666.577 149.876 667.165 148.076 667.67 146.25C670.357 136.577 673.021 126.901 675.686 117.223C677.385 111.052 679.085 104.881 680.79 98.71C682.908 91.0567 685.027 83.4045 687.147 75.7524L687.148 75.7512C691.384 60.4571 695.621 45.163 699.84 29.86C700.52 27.39 701.5 26.05 704.58 26.19C709.564 26.4226 714.563 26.377 719.73 26.3298C721.894 26.31 724.086 26.29 726.32 26.29L726.3 26.3ZM1504.53 160.98C1503.82 163.637 1503.11 166.295 1502.41 168.95L1502.39 168.94L1501.73 169C1501.4 167.786 1501.07 166.571 1500.74 165.356L1500.74 165.351L1500.74 165.345C1500.27 163.612 1499.8 161.878 1499.34 160.14C1494.48 141.7 1489.63 123.25 1484.79 104.8C1484.17 102.455 1483.56 100.109 1482.95 97.7635L1482.95 97.7592L1482.95 97.7554L1482.95 97.7511L1482.95 97.7473L1482.95 97.7437L1482.95 97.7405L1482.95 97.7376L1482.95 97.7348C1481.2 91.0153 1479.45 84.2962 1477.59 77.61C1477.34 76.72 1475.91 75.57 1475 75.55C1468.21 75.38 1461.41 75.4 1454.61 75.55C1453.79 75.56 1452.51 76.63 1452.27 77.45C1447.96 91.94 1443.74 106.47 1439.56 121C1437.56 127.964 1435.58 134.93 1433.6 141.896L1433.59 141.96L1433.57 142.024C1431.59 148.99 1429.61 155.956 1427.61 162.92C1427.24 164.195 1426.78 165.448 1426.25 166.899L1426.25 166.902L1426.24 166.923L1426.23 166.958C1425.97 167.663 1425.69 168.415 1425.4 169.24C1424.53 165.786 1423.68 162.42 1422.85 159.113C1421.09 152.157 1419.4 145.463 1417.76 138.76C1412.81 118.56 1407.87 98.36 1403.07 78.13C1402.55 75.96 1401.69 75.42 1399.62 75.42C1392.52 75.4518 1385.41 75.4526 1378.31 75.4535H1378.31C1369.78 75.4545 1361.26 75.4554 1352.73 75.51C1350.31 75.53 1349.6 74.8 1349.66 72.42C1349.77 68.006 1349.75 63.5868 1349.73 59.1699V59.1689V59.1678V59.1668V59.1657V59.1646V59.1636V59.1625V59.1615C1349.72 57.3971 1349.71 55.6332 1349.71 53.87C1349.71 48.6167 1347.03 45.99 1341.68 45.99H1327.16V75.51H1311.07V95.44H1327.3V99.35C1327.3 104.638 1327.29 109.925 1327.28 115.213C1327.25 129.185 1327.22 143.158 1327.39 157.13C1327.46 163.26 1328.04 169.48 1329.3 175.47C1331.34 185.18 1336.9 192.62 1346.15 196.71C1359.18 202.46 1372.19 201.18 1385.02 195.83C1385.71 195.54 1386.59 194.2 1386.42 193.65C1385.1 189.382 1383.66 185.15 1382.23 180.957L1382.19 180.831L1382.02 180.331L1381.7 179.399C1381.45 178.662 1381.2 177.925 1380.95 177.19C1379.76 177.519 1378.63 177.859 1377.52 178.19C1375.24 178.873 1373.1 179.515 1370.91 179.94C1362.04 181.66 1355.21 178.48 1352.13 170.96C1350.96 168.11 1350.17 164.89 1350.13 161.83C1349.95 147.584 1349.89 133.334 1349.82 119.085V119.082V119.08V119.077V119.075V119.072V119.07V119.068V119.065C1349.79 111.936 1349.76 104.807 1349.71 97.68C1349.7 95.95 1350.35 95.4 1352.03 95.4C1355.4 95.4137 1358.78 95.4133 1362.15 95.4129C1368.62 95.4122 1375.09 95.4114 1381.56 95.51C1382.44 95.52 1383.84 96.68 1384.09 97.56C1388.38 112.49 1392.54 127.46 1396.68 142.43C1398.21 147.952 1399.73 153.477 1401.25 159.003L1401.25 159.005L1401.25 159.008L1401.25 159.01L1401.25 159.012L1401.25 159.014L1401.25 159.017L1401.25 159.019L1401.26 159.021C1404.63 171.28 1408.01 183.542 1411.46 195.78C1411.7 196.64 1413.21 197.71 1414.15 197.73C1421.15 197.9 1428.15 197.9 1435.15 197.73C1436.03 197.71 1437.36 196.55 1437.66 195.64C1439.34 190.57 1440.81 185.42 1442.26 180.28C1445.38 169.255 1448.48 158.23 1451.59 147.205C1454.7 136.18 1457.81 125.155 1460.92 114.13C1461.5 112.052 1462.14 109.987 1462.85 107.718C1463.23 106.493 1463.62 105.208 1464.04 103.83C1464.28 104.22 1464.46 104.491 1464.6 104.692L1464.6 104.692C1464.79 104.992 1464.89 105.139 1464.94 105.3C1465.97 108.988 1467 112.674 1468.04 116.361L1468.08 116.509C1471.09 127.25 1474.09 137.989 1477.07 148.74C1481.38 164.3 1485.66 179.86 1489.85 195.45C1490.34 197.29 1491.14 197.88 1492.97 197.86C1499.46 197.79 1505.96 197.8 1512.45 197.86C1514.24 197.88 1515.12 197.38 1515.59 195.46C1516.79 190.566 1518.2 185.728 1519.6 180.888C1519.77 180.299 1519.94 179.71 1520.11 179.12C1524.91 162.509 1529.73 145.915 1534.56 129.314L1535.71 125.36C1536.96 121.064 1538.22 116.773 1539.48 112.483L1539.48 112.47L1539.49 112.454L1539.49 112.437L1539.5 112.417L1539.5 112.394L1539.51 112.368L1539.52 112.336L1539.53 112.305C1541.18 106.689 1542.83 101.074 1544.45 95.45C1545.78 90.8265 1547.06 86.1879 1548.37 81.4355L1548.38 81.4036C1548.92 79.4441 1549.46 77.4652 1550.02 75.46C1548.38 75.46 1546.76 75.457 1545.15 75.454C1539.58 75.4436 1534.16 75.4336 1528.74 75.55C1528.02 75.57 1526.92 76.74 1526.7 77.56C1524.45 85.8077 1522.27 94.0661 1520.09 102.327C1519.29 105.385 1518.48 108.442 1517.67 111.5C1515.84 118.42 1514 125.337 1512.16 132.255C1510.32 139.172 1508.48 146.09 1506.65 153.01L1506.43 153.851L1505.82 156.118C1505.39 157.733 1504.96 159.348 1504.53 160.963L1504.53 160.98ZM1150.9 26.5401V153.479C1150.53 153.052 1150.23 152.723 1149.99 152.455C1149.55 151.967 1149.29 151.679 1149.07 151.37C1147.2 148.841 1145.33 146.311 1143.45 143.782L1143 143.174C1133.91 130.895 1124.82 118.614 1115.75 106.32L1111.24 100.206C1093.56 76.2637 1075.88 52.3181 1058.27 28.3301C1057.08 26.7001 1055.85 26.2201 1053.98 26.2601C1049.11 26.3601 1044.23 26.4601 1039.37 26.2301C1036.44 26.0901 1035.84 27.1901 1035.85 29.8901C1035.92 48.1055 1035.91 66.3151 1035.9 84.5278V84.5287V84.5296V84.5305V84.5314V84.5323V84.5331V84.534C1035.9 90.1356 1035.9 95.7376 1035.9 101.34C1035.9 107.865 1035.9 114.39 1035.9 120.914C1035.91 145.4 1035.92 169.885 1035.83 194.37C1035.81 197.27 1036.71 197.98 1039.43 197.88C1043.25 197.745 1047.07 197.772 1050.9 197.798C1052.45 197.809 1054.01 197.82 1055.56 197.82C1058.4 197.82 1059.82 196.397 1059.82 193.55C1059.82 154.44 1059.82 115.32 1059.83 76.2001C1059.83 75.4235 1059.9 74.6469 1059.99 73.6344C1060.05 73.0303 1060.11 72.3422 1060.17 71.5201C1060.62 72.0622 1061 72.5125 1061.33 72.9048C1061.96 73.6561 1062.42 74.1951 1062.84 74.7601C1071.83 86.9569 1080.81 99.1606 1089.8 111.363C1096.19 120.05 1102.58 128.737 1108.98 137.42C1123.34 156.93 1137.71 176.43 1152.11 195.91C1152.67 196.67 1153.57 197.69 1154.33 197.71C1159.45 197.818 1164.57 197.807 1169.72 197.796C1171.27 197.793 1172.82 197.79 1174.38 197.79V26.5401H1150.9ZM892.4 179.13C875.14 173.07 866.79 154.44 867.28 142.46L867.26 142.45H870.79C876.815 142.45 882.84 142.448 888.864 142.447C911.456 142.44 934.043 142.433 956.63 142.52C959.39 142.53 960.5 141.66 960.55 139.04C960.579 137.522 960.639 136.004 960.7 134.486C960.808 131.754 960.917 129.022 960.84 126.29C960.44 111.65 955.48 98.62 944.95 88.43C928.41 72.42 908.53 68.7 886.85 75.36C864.59 82.2 851.75 98.27 846.03 120.18C842.7 132.94 843.54 145.87 847.19 158.56C850.76 170.94 857.3 181.39 867.66 189.22C881.17 199.42 896.62 201.72 913.07 200.46C931.18 199.07 945.47 191.17 955.98 176.47C956.239 176.106 956.479 175.774 956.7 175.468L956.707 175.458C958.086 173.544 958.694 172.702 958.523 172.071C958.388 171.574 957.772 171.207 956.672 170.553C956.097 170.21 955.39 169.789 954.55 169.23C951.808 167.402 948.997 165.673 946.183 163.942L946.183 163.942L946.183 163.942L946.182 163.942L946.182 163.942L946.182 163.942L946.181 163.941L946.18 163.94L946.179 163.94L946.178 163.939L946.178 163.939L946.177 163.939C944.99 163.209 943.803 162.478 942.62 161.74C931.33 182.08 907.47 184.42 892.4 179.13ZM869.426 123.995C869.233 123.929 868.986 123.846 868.65 123.75H868.64C872.26 110.64 878.62 99.79 891.54 94.51C912.78 85.83 934.32 98.68 937.35 121.36C937.62 123.38 937.28 124.2 935.19 124.2C922.162 124.182 909.134 124.175 896.106 124.168C887.424 124.163 878.742 124.158 870.06 124.15C869.886 124.15 869.716 124.093 869.426 123.995ZM1290.21 163.871L1290.22 163.878L1290.22 163.88L1290.23 163.881C1294.04 166.279 1297.71 168.59 1301.3 171.02C1301.88 171.41 1302.19 173.26 1301.78 173.88C1293.78 186.15 1283.12 194.88 1268.62 198.53C1257.21 201.41 1245.68 201.8 1234.28 199.36C1215.83 195.4 1202.47 184.66 1194.57 167.39C1188.12 153.29 1186.55 138.37 1189.52 123.47C1194.19 100.08 1207.31 83.1101 1230.68 75.3701C1256.56 66.8101 1286.59 76.3401 1299.37 102.99C1305.08 114.89 1306.51 127.54 1304.25 140.55C1304.12 141.28 1302.98 142.01 1302.15 142.38C1301.68 142.589 1301.08 142.541 1300.49 142.492C1300.24 142.471 1299.98 142.45 1299.74 142.45C1293.05 142.45 1286.37 142.452 1279.68 142.454C1257.96 142.462 1236.23 142.469 1214.51 142.4C1211.65 142.4 1210.62 143.21 1211.17 146.05C1213.42 157.87 1218.31 168.08 1228.62 175.06C1237.97 181.39 1248.29 182.42 1259.13 180.75C1268.83 179.26 1276.92 175 1282.97 167.17C1283.83 166.059 1284.6 164.885 1285.44 163.624C1285.85 163.001 1286.27 162.358 1286.73 161.69H1286.75C1287.89 162.411 1289.01 163.119 1290.13 163.82L1290.21 163.871ZM1213.63 124.009C1213.35 123.944 1213 123.866 1212.55 123.781C1212.95 122.724 1213.31 121.676 1213.67 120.642L1213.68 120.625L1213.68 120.62L1213.68 120.619L1213.68 120.619L1213.68 120.618L1213.68 120.617C1214.45 118.395 1215.2 116.237 1216.19 114.19C1223.09 99.8801 1233.99 91.4401 1250.48 91.9201C1263.49 92.3001 1272.44 99.1601 1278.09 110.45C1279.38 113.036 1280.12 115.908 1280.85 118.768L1280.85 118.769L1280.85 118.77L1280.85 118.771L1280.85 118.771C1281.1 119.726 1281.34 120.679 1281.61 121.62C1282.09 123.31 1281.43 124.22 1279.44 124.22C1266.5 124.196 1253.55 124.194 1240.6 124.191H1240.59H1240.59H1240.59C1231.95 124.19 1223.32 124.188 1214.68 124.18C1214.39 124.18 1214.09 124.112 1213.63 124.009ZM1674.44 138.78C1675.53 100.35 1646.47 71.98 1611.99 72.47L1611.98 72.48C1576.57 72.14 1549.29 100.14 1549.2 136.74C1549.12 172.83 1576.5 200.78 1611.59 200.86C1647.91 200.94 1673.48 172.44 1674.44 138.78ZM1643.57 110.41C1648.91 118.36 1651.34 127.18 1651.48 138.37V138.38C1650.63 153.61 1644.58 167.72 1628.9 175.86C1612.02 184.63 1592.47 179.57 1581.17 164.16C1567.14 145.02 1569.81 117.44 1587.66 102.12C1604.4 87.74 1630.38 90.8 1643.57 110.41ZM849.09 74.1301C828.662 68.4234 815.206 77.1697 804.509 93.3214C804.49 92.9933 804.467 92.6652 804.444 92.337C804.392 91.6014 804.34 90.8657 804.34 90.1301C804.334 88.7917 804.338 87.4522 804.341 86.1124V86.112V86.1116V86.1112C804.35 83.2971 804.358 80.4813 804.27 77.6701C804.24 76.9201 803.4 75.5601 802.92 75.5601C797.284 75.4548 791.648 75.461 786.043 75.4672C784.727 75.4686 783.412 75.4701 782.1 75.4701C782.037 75.711 781.98 75.9031 781.933 76.0631C781.845 76.3613 781.79 76.5478 781.79 76.7301C781.783 89.9501 781.779 103.17 781.774 116.39C781.766 142.79 781.757 169.19 781.73 195.59C781.72 197.32 782.35 197.87 784.04 197.85C784.353 197.846 784.666 197.842 784.979 197.838C785.413 197.832 785.848 197.825 786.282 197.819C791.015 197.752 795.746 197.684 800.47 197.9C803.54 198.04 804.41 197.18 804.39 194.05C804.26 169.02 804.27 143.99 804.4 118.96C804.41 116.9 805.34 114.68 806.34 112.81C807.52 110.61 809.14 108.61 810.76 106.68C818.52 97.4501 828.28 93.7001 840.23 96.2401C841.238 96.4537 842.223 96.7652 843.303 97.1064C843.84 97.2764 844.401 97.4538 845 97.6301C846.392 89.6129 847.716 82.0148 849.039 74.4221L849.062 74.2922L849.065 74.2714L849.09 74.1301ZM1685.48 75.58H1685.47L1685.48 75.56V75.58ZM1685.48 75.58H1707.98V93.62C1713.55 86.41 1718.98 79.61 1727.04 75.45C1735.31 71.19 1743.85 72.05 1752.75 73.9C1752.55 75.2149 1752.36 76.5182 1752.17 77.8134L1752.17 77.8217C1751.77 80.5229 1751.38 83.1887 1750.95 85.85C1750.7 87.4028 1750.41 88.948 1750.12 90.4919L1750.12 90.4938L1750.11 90.4951C1749.83 92.0226 1749.54 93.5488 1749.29 95.08C1748.99 96.92 1748.39 97.84 1746.28 97.1C1735.2 93.19 1723 96.52 1715.49 105.43C1715.33 105.615 1715.18 105.8 1715.02 105.985C1714.06 107.108 1713.11 108.231 1712.21 109.39C1709.3 113.14 1707.78 117.11 1707.84 122.16C1708.02 136.868 1708.01 151.58 1708 166.292C1707.99 175.705 1707.99 185.118 1708.03 194.53C1708.04 197.28 1707.22 197.98 1704.59 197.88C1699.22 197.69 1693.83 197.67 1688.46 197.88C1685.63 198 1685.44 196.69 1685.44 194.43C1685.48 163.239 1685.48 132.047 1685.48 100.856C1685.48 95.6571 1685.48 90.4586 1685.48 85.26V75.58ZM738.07 75.4501C739.648 75.4501 741.209 75.4471 742.756 75.4441C748.109 75.4337 753.298 75.4237 758.48 75.5401C759.15 75.5501 759.97 76.6601 760.4 77.4401C760.608 77.814 760.557 78.3367 760.505 78.8585C760.483 79.0902 760.46 79.3218 760.46 79.5401C760.46 87.1576 760.459 94.7755 760.458 102.394V102.394C760.453 132.869 760.448 163.348 760.52 193.82C760.52 196.91 759.88 198.11 756.54 197.92C751.706 197.644 746.846 197.749 742 197.853L741.99 197.853C741.567 197.862 741.143 197.871 740.72 197.88C738.74 197.92 737.84 197.52 737.84 195.24C737.893 160.935 737.891 126.63 737.89 92.3313C737.89 87.4274 737.89 82.5237 737.89 77.6201C737.89 77.239 737.928 76.862 737.976 76.3788L737.976 76.3784L737.976 76.3774C738.002 76.1128 738.032 75.8164 738.06 75.4701L738.07 75.4501ZM737.897 46.8271C737.898 48.4441 737.9 50.0771 737.9 51.7301V51.7201C739.484 51.7201 741.047 51.7225 742.593 51.7249C748.085 51.7334 753.367 51.7415 758.65 51.6401C759.26 51.6301 760.36 50.5101 760.37 49.8901C760.5 42.7001 760.51 35.5101 760.37 28.3201C760.36 27.6301 759.17 26.4001 758.51 26.3801C752.23 26.2401 745.94 26.2501 739.65 26.3801C739.05 26.4001 737.98 27.5401 737.98 28.1701C737.884 34.3061 737.89 40.4421 737.897 46.8271Z" fill="#3B82FF"/>
</g>
<defs>
<clipPath id="clip0_1615_70">
<rect width="1866.92" height="216.16" fill="white" transform="translate(0 0.160034)"/>
</clipPath>
</defs>
</svg>
