<svg width="24" height="25" viewBox="0 0 24 25" fill="none" xmlns="http://www.w3.org/2000/svg">
  <path d="M20.0306 17.5306L17.0306 20.5306C16.8899 20.6713 16.699 20.7504 16.5 20.7504C16.301 20.7504 16.1101 20.6713 15.9694 20.5306C15.8287 20.3899 15.7496 20.199 15.7496 20C15.7496 19.801 15.8287 19.6101 15.9694 19.4694L17.6897 17.75H4.50001C4.3011 17.75 4.11033 17.671 3.96968 17.5303C3.82903 17.3897 3.75001 17.1989 3.75001 17C3.75001 16.8011 3.82903 16.6103 3.96968 16.4697C4.11033 16.329 4.3011 16.25 4.50001 16.25H17.6897L15.9694 14.5306C15.8287 14.3899 15.7496 14.199 15.7496 14C15.7496 13.801 15.8287 13.6101 15.9694 13.4694C16.1101 13.3286 16.301 13.2496 16.5 13.2496C16.699 13.2496 16.8899 13.3286 17.0306 13.4694L20.0306 16.4694C20.1004 16.539 20.1557 16.6217 20.1934 16.7128C20.2312 16.8038 20.2506 16.9014 20.2506 17C20.2506 17.0986 20.2312 17.1961 20.1934 17.2872C20.1557 17.3782 20.1004 17.461 20.0306 17.5306ZM6.96938 11.5306C7.11012 11.6713 7.30099 11.7504 7.50001 11.7504C7.69903 11.7504 7.8899 11.6713 8.03064 11.5306C8.17137 11.3899 8.25043 11.199 8.25043 11C8.25043 10.801 8.17137 10.6101 8.03064 10.4694L6.31032 8.74999H19.5C19.6989 8.74999 19.8897 8.67097 20.0303 8.53032C20.171 8.38967 20.25 8.1989 20.25 7.99999C20.25 7.80108 20.171 7.61031 20.0303 7.46966C19.8897 7.32901 19.6989 7.24999 19.5 7.24999H6.31032L8.03064 5.53061C8.17137 5.38988 8.25043 5.19901 8.25043 4.99999C8.25043 4.80097 8.17137 4.6101 8.03063 4.46936C7.8899 4.32863 7.69903 4.24957 7.50001 4.24957C7.30099 4.24957 7.11012 4.32863 6.96938 4.46936L3.96939 7.46936C3.89965 7.53902 3.84433 7.62174 3.80659 7.71278C3.76885 7.80383 3.74942 7.90143 3.74942 7.99999C3.74942 8.09855 3.76885 8.19615 3.80659 8.2872C3.84433 8.37824 3.89965 8.46096 3.96939 8.53061L6.96938 11.5306Z" fill="currentColor" fill-opacity="0.95"/>
</svg>