<svg width="24" height="25" viewBox="0 0 24 25" fill="none" xmlns="http://www.w3.org/2000/svg">
  <path d="M19.5 5H4.5C3.90326 5 3.33097 5.23705 2.90901 5.65901C2.48705 6.08097 2.25 6.65326 2.25 7.25V17.75C2.25 18.3467 2.48705 18.919 2.90901 19.341C3.33097 19.7629 3.90326 20 4.5 20H19.5C20.0967 20 20.669 19.7629 21.091 19.341C21.5129 18.919 21.75 18.3467 21.75 17.75V7.25C21.75 6.65326 21.5129 6.08097 21.091 5.65901C20.669 5.23705 20.0967 5 19.5 5ZM3.75 9.5H20.25V11H15C14.8011 11 14.6103 11.079 14.4697 11.2197C14.329 11.3603 14.25 11.5511 14.25 11.75C14.25 12.3467 14.0129 12.919 13.591 13.341C13.169 13.7629 12.5967 14 12 14C11.4033 14 10.831 13.7629 10.409 13.341C9.98705 12.919 9.75 12.3467 9.75 11.75C9.75 11.5511 9.67098 11.3603 9.53033 11.2197C9.38968 11.079 9.19891 11 9 11H3.75V9.5ZM4.5 6.5H19.5C19.6989 6.5 19.8897 6.57902 20.0303 6.71967C20.171 6.86032 20.25 7.05109 20.25 7.25V8H3.75V7.25C3.75 7.05109 3.82902 6.86032 3.96967 6.71967C4.11032 6.57902 4.30109 6.5 4.5 6.5ZM19.5 18.5H4.5C4.30109 18.5 4.11032 18.421 3.96967 18.2803C3.82902 18.1397 3.75 17.9489 3.75 17.75V12.5H8.325C8.49714 13.3477 8.95705 14.1099 9.62681 14.6573C10.2966 15.2047 11.135 15.5038 12 15.5038C12.865 15.5038 13.7034 15.2047 14.3732 14.6573C15.043 14.1099 15.5029 13.3477 15.675 12.5H20.25V17.75C20.25 17.9489 20.171 18.1397 20.0303 18.2803C19.8897 18.421 19.6989 18.5 19.5 18.5Z" fill="currentColor" fill-opacity="0.95"/>
</svg>