<svg width="24" height="25" viewBox="0 0 24 25" fill="none" xmlns="http://www.w3.org/2000/svg">
  <path d="M15.75 11C15.75 11.1989 15.671 11.3897 15.5303 11.5304C15.3897 11.671 15.1989 11.75 15 11.75H9C8.80109 11.75 8.61032 11.671 8.46967 11.5304C8.32902 11.3897 8.25 11.1989 8.25 11C8.25 10.8011 8.32902 10.6104 8.46967 10.4697C8.61032 10.329 8.80109 10.25 9 10.25H15C15.1989 10.25 15.3897 10.329 15.5303 10.4697C15.671 10.6104 15.75 10.8011 15.75 11ZM15 13.25H9C8.80109 13.25 8.61032 13.329 8.46967 13.4697C8.32902 13.6104 8.25 13.8011 8.25 14C8.25 14.1989 8.32902 14.3897 8.46967 14.5304C8.61032 14.671 8.80109 14.75 9 14.75H15C15.1989 14.75 15.3897 14.671 15.5303 14.5304C15.671 14.3897 15.75 14.1989 15.75 14C15.75 13.8011 15.671 13.6104 15.5303 13.4697C15.3897 13.329 15.1989 13.25 15 13.25ZM21.75 12.5C21.7504 14.1833 21.3149 15.8381 20.486 17.3032C19.6572 18.7683 18.4631 19.9938 17.02 20.8605C15.577 21.7272 13.9341 22.2055 12.2514 22.2489C10.5686 22.2923 8.9033 21.8993 7.4175 21.1082L4.22531 22.1722C3.96102 22.2604 3.6774 22.2731 3.40624 22.2092C3.13509 22.1452 2.88711 22.0069 2.69011 21.8099C2.49311 21.6129 2.35486 21.3649 2.29087 21.0938C2.22688 20.8226 2.23967 20.539 2.32781 20.2747L3.39187 17.0825C2.69639 15.7749 2.30793 14.3261 2.256 12.8459C2.20406 11.3658 2.49001 9.89328 3.09213 8.54015C3.69425 7.18703 4.59672 5.98885 5.73105 5.03658C6.86537 4.08431 8.20173 3.40298 9.63869 3.04429C11.0756 2.6856 12.5754 2.65899 14.0242 2.96647C15.473 3.27395 16.8327 3.90745 18.0001 4.81888C19.1675 5.7303 20.1119 6.8957 20.7616 8.22662C21.4114 9.55753 21.7494 11.019 21.75 12.5ZM20.25 12.5C20.2496 11.2345 19.9582 9.98606 19.3981 8.85123C18.838 7.7164 18.0244 6.72562 17.0201 5.95556C16.0159 5.1855 14.8479 4.65678 13.6067 4.41033C12.3654 4.16388 11.084 4.20628 9.86178 4.53428C8.63951 4.86227 7.50909 5.46705 6.55796 6.30183C5.60682 7.13662 4.86049 8.17902 4.37668 9.3484C3.89288 10.5178 3.68458 11.7828 3.7679 13.0455C3.85122 14.3083 4.22393 15.535 4.85719 16.6307C4.91034 16.7226 4.94334 16.8249 4.954 16.9306C4.96467 17.0363 4.95276 17.143 4.91906 17.2438L3.75 20.75L7.25625 19.581C7.33262 19.5549 7.41275 19.5416 7.49344 19.5416C7.62516 19.5418 7.7545 19.5767 7.86844 19.6428C9.12263 20.3685 10.5458 20.751 11.9948 20.7519C13.4438 20.7528 14.8674 20.3721 16.1225 19.6481C17.3776 18.924 18.4199 17.8821 19.1445 16.6273C19.869 15.3725 20.2503 13.949 20.25 12.5Z" fill="currentColor" fill-opacity="0.95"/>
</svg>