<svg width="24" height="25" viewBox="0 0 24 25" fill="none" xmlns="http://www.w3.org/2000/svg">
  <path d="M19.4606 6.485C17.5172 5.51375 14.9372 5 12 5C9.06281 5 6.48281 5.51375 4.53937 6.485C2.59594 7.45625 1.5 8.82312 1.5 10.25V14.75C1.5 16.1769 2.60812 17.5484 4.53937 18.515C6.47062 19.4816 9.06281 20 12 20C14.9372 20 17.5172 19.4862 19.4606 18.515C21.4041 17.5438 22.5 16.1769 22.5 14.75V10.25C22.5 8.82312 21.3919 7.45156 19.4606 6.485ZM12 6.5C17.8725 6.5 21 8.67781 21 10.25C21 11.8222 17.8725 14 12 14C6.1275 14 3 11.8222 3 10.25C3 8.67781 6.1275 6.5 12 6.5ZM11.25 15.4869V18.4869C9.46875 18.4288 7.96875 18.1662 6.75 17.7847V14.8484C8.21919 15.2399 9.72991 15.4542 11.25 15.4869ZM12.75 15.4869C14.2701 15.4542 15.7808 15.2399 17.25 14.8484V17.7838C16.0312 18.1653 14.5312 18.4278 12.75 18.4859V15.4869ZM3 14.75V13.0184C3.47199 13.4102 3.98871 13.7447 4.53937 14.015C4.76719 14.1284 5.00813 14.2353 5.25 14.3366V17.1875C3.76594 16.4525 3 15.5272 3 14.75ZM18.75 17.1875V14.3366C18.9947 14.2353 19.2328 14.1284 19.4606 14.015C20.0113 13.7447 20.528 13.4102 21 13.0184V14.75C21 15.5272 20.2341 16.4525 18.75 17.1875Z" fill="currentColor" fill-opacity="0.95"/>
</svg>