<svg width="24" height="25" viewBox="0 0 24 25" fill="none" xmlns="http://www.w3.org/2000/svg">
  <path d="M17.25 6.5H3.75C3.55109 6.5 3.36032 6.57902 3.21967 6.71967C3.07902 6.86032 3 7.05109 3 7.25V20.75C3 20.9489 3.07902 21.1397 3.21967 21.2803C3.36032 21.421 3.55109 21.5 3.75 21.5H17.25C17.4489 21.5 17.6397 21.421 17.7803 21.2803C17.921 21.1397 18 20.9489 18 20.75V7.25C18 7.05109 17.921 6.86032 17.7803 6.71967C17.6397 6.57902 17.4489 6.5 17.25 6.5ZM16.5 20H4.5V8H16.5V20ZM21 4.25V17.75C21 17.9489 20.921 18.1397 20.7803 18.2803C20.6397 18.421 20.4489 18.5 20.25 18.5C20.0511 18.5 19.8603 18.421 19.7197 18.2803C19.579 18.1397 19.5 17.9489 19.5 17.75V5H6.75C6.55109 5 6.36032 4.92098 6.21967 4.78033C6.07902 4.63968 6 4.44891 6 4.25C6 4.05109 6.07902 3.86032 6.21967 3.71967C6.36032 3.57902 6.55109 3.5 6.75 3.5H20.25C20.4489 3.5 20.6397 3.57902 20.7803 3.71967C20.921 3.86032 21 4.05109 21 4.25Z" fill="currentColor" fill-opacity="0.95"/>
</svg>