<svg width="24" height="25" viewBox="0 0 24 25" fill="none" xmlns="http://www.w3.org/2000/svg">
  <path d="M20.97 6.70158L12.72 2.18752C12.4996 2.06572 12.2518 2.00183 12 2.00183C11.7482 2.00183 11.5004 2.06572 11.28 2.18752L3.03 6.70345C2.7944 6.83237 2.59772 7.02217 2.46052 7.25304C2.32331 7.48391 2.25061 7.74739 2.25 8.01595V16.9822C2.25061 17.2508 2.32331 17.5142 2.46052 17.7451C2.59772 17.976 2.7944 18.1658 3.03 18.2947L11.28 22.8106C11.5004 22.9324 11.7482 22.9963 12 22.9963C12.2518 22.9963 12.4996 22.9324 12.72 22.8106L20.97 18.2947C21.2056 18.1658 21.4023 17.976 21.5395 17.7451C21.6767 17.5142 21.7494 17.2508 21.75 16.9822V8.01689C21.7499 7.74785 21.6774 7.48379 21.5402 7.25238C21.403 7.02096 21.206 6.83072 20.97 6.70158ZM12 3.50002L19.5319 7.62502L12 11.75L4.46812 7.62502L12 3.50002ZM3.75 8.93752L11.25 13.0419V21.0847L3.75 16.9831V8.93752ZM12.75 21.0847V13.0456L20.25 8.93752V16.9794L12.75 21.0847Z" fill="currentColor" fill-opacity="0.95"/>
</svg>