<svg width="24" height="24" viewBox="0 0 24 24" fill="none" xmlns="http://www.w3.org/2000/svg">
  <path d="M21.6719 15.7939C21.727 15.8016 21.7802 15.8213 21.8271 15.8506C21.8893 15.8895 21.9389 15.9448 21.9687 16.0098C21.9983 16.0748 22.0068 16.147 21.9941 16.2168L21.9814 16.2676C21.9642 16.3179 21.9356 16.3643 21.8975 16.4033L21.6162 16.6895L18.5957 19.7686L18.5391 19.8203C18.4798 19.8695 18.4123 19.9095 18.3398 19.9395L18.2666 19.9658C18.1917 19.9884 18.1131 20 18.0342 20H2.38281L2.32812 19.9961C2.29126 19.991 2.25544 19.9808 2.22168 19.9658L2.17285 19.9404C2.11061 19.9016 2.06199 19.8461 2.03222 19.7812C2.00249 19.7162 1.99325 19.6441 2.00586 19.5742C2.01852 19.5043 2.05256 19.4386 2.10351 19.3867L5.40722 16.0225C5.4787 15.9497 5.56513 15.8914 5.66113 15.8516C5.75733 15.8117 5.86186 15.7902 5.96679 15.79H21.6162L21.6719 15.7939ZM5.07715 18.5H17.7383L18.9248 17.29H6.26465L5.07715 18.5ZM21.6162 13.6045H21.2725L21.6162 13.2676V13.6045ZM2.38281 9.39551H18.0342L18.1133 9.39941C18.1912 9.40703 18.2677 9.42537 18.3398 9.45508C18.4363 9.49491 18.5239 9.55385 18.5957 9.62695L21.8975 12.9922C21.9482 13.044 21.9815 13.1089 21.9941 13.1787C22.0068 13.2486 21.9984 13.3207 21.9687 13.3857L21.9424 13.4326C21.9131 13.4774 21.8738 13.5158 21.8271 13.5449L21.7783 13.5713C21.7279 13.5935 21.6722 13.6045 21.6162 13.6045V13.2676L21.2725 13.6045H5.96679L5.88769 13.6006C5.83595 13.5954 5.78493 13.5853 5.73535 13.5703L5.66113 13.5439C5.58914 13.5141 5.52281 13.4737 5.46386 13.4248L5.40722 13.373L2.10351 10.0078C2.06535 9.96893 2.03582 9.92316 2.01855 9.87305L2.00586 9.82129C1.99319 9.75134 2.00246 9.67936 2.03222 9.61426C2.06196 9.54936 2.11059 9.49395 2.17285 9.45508C2.21978 9.42582 2.27302 9.40704 2.32812 9.39941L2.38281 9.39551ZM6.26367 12.1045H18.9248L17.7383 10.8955H5.07715L6.26367 12.1045ZM21.6162 3C21.6909 3 21.7646 3.02065 21.8271 3.05957C21.8894 3.09847 21.9389 3.15375 21.9687 3.21875C21.9984 3.28377 22.0068 3.3559 21.9941 3.42578L21.9814 3.47754C21.9642 3.52776 21.9356 3.57435 21.8975 3.61328L18.5957 6.97754L18.5391 7.03027C18.4798 7.07937 18.4122 7.11954 18.3398 7.14941L18.2666 7.17578C18.1917 7.19834 18.113 7.20999 18.0342 7.20996H2.38281L2.32812 7.20508C2.29138 7.19991 2.25532 7.19072 2.22168 7.17578L2.17382 7.14941C2.12718 7.12024 2.08779 7.08185 2.05859 7.03711L2.03222 6.99023C2.00998 6.94145 1.99956 6.88867 2.00097 6.83594L2.00683 6.7832C2.01639 6.73073 2.03764 6.68111 2.06933 6.6377L2.10351 6.59668L5.40722 3.23145C5.47873 3.15864 5.56509 3.10035 5.66113 3.06055C5.75733 3.02072 5.86186 3.00017 5.96679 3H21.6162ZM5.07617 5.70996H17.7383L18.9248 4.5H6.26367L5.07617 5.70996Z" fill="currentColor" fill-opacity="0.95"/>
</svg>