<svg width="24" height="25" viewBox="0 0 24 25" fill="none" xmlns="http://www.w3.org/2000/svg">
  <path d="M20.8397 12.0369L12.5897 1.53693C12.5195 1.44764 12.43 1.37544 12.3278 1.3258C12.2257 1.27616 12.1136 1.25037 12 1.25037C11.8864 1.25037 11.7743 1.27616 11.6722 1.3258C11.57 1.37544 11.4805 1.44764 11.4103 1.53693L3.16032 12.0369C3.05661 12.169 3.00024 12.3321 3.00024 12.5001C3.00024 12.668 3.05661 12.8311 3.16032 12.9632L11.4103 23.4632C11.4805 23.5525 11.57 23.6247 11.6722 23.6743C11.7743 23.724 11.8864 23.7498 12 23.7498C12.1136 23.7498 12.2257 23.724 12.3278 23.6743C12.43 23.6247 12.5195 23.5525 12.5897 23.4632L20.8397 12.9632C20.9434 12.8311 20.9998 12.668 20.9998 12.5001C20.9998 12.3321 20.9434 12.169 20.8397 12.0369ZM12.75 4.1685L19.0706 12.2122L12.75 15.0857V4.1685ZM11.25 15.0857L4.92938 12.2122L11.25 4.1685V15.0857ZM11.25 16.7329V20.8316L6.24094 14.4566L11.25 16.7329ZM12.75 16.7329L17.7591 14.4557L12.75 20.8307V16.7329Z" fill="currentColor" fill-opacity="0.95"/>
</svg>