<svg width="24" height="25" viewBox="0 0 24 25" fill="none" xmlns="http://www.w3.org/2000/svg">
  <path d="M16.7325 11.3469C17.3017 10.7988 17.7016 10.0987 17.8844 9.32993C18.0673 8.56116 18.0255 7.75604 17.764 7.01034C17.5025 6.26464 17.0323 5.60975 16.4093 5.12356C15.7864 4.63737 15.0369 4.34034 14.25 4.26781V2.75C14.25 2.55109 14.171 2.36032 14.0303 2.21967C13.8897 2.07902 13.6989 2 13.5 2C13.3011 2 13.1103 2.07902 12.9697 2.21967C12.829 2.36032 12.75 2.55109 12.75 2.75V4.25H11.25V2.75C11.25 2.55109 11.171 2.36032 11.0303 2.21967C10.8897 2.07902 10.6989 2 10.5 2C10.3011 2 10.1103 2.07902 9.96967 2.21967C9.82902 2.36032 9.75 2.55109 9.75 2.75V4.25H6.75C6.55109 4.25 6.36032 4.32902 6.21967 4.46967C6.07902 4.61032 6 4.80109 6 5C6 5.19891 6.07902 5.38968 6.21967 5.53033C6.36032 5.67098 6.55109 5.75 6.75 5.75H7.5V18.5H6.75C6.55109 18.5 6.36032 18.579 6.21967 18.7197C6.07902 18.8603 6 19.0511 6 19.25C6 19.4489 6.07902 19.6397 6.21967 19.7803C6.36032 19.921 6.55109 20 6.75 20H9.75V21.5C9.75 21.6989 9.82902 21.8897 9.96967 22.0303C10.1103 22.171 10.3011 22.25 10.5 22.25C10.6989 22.25 10.8897 22.171 11.0303 22.0303C11.171 21.8897 11.25 21.6989 11.25 21.5V20H12.75V21.5C12.75 21.6989 12.829 21.8897 12.9697 22.0303C13.1103 22.171 13.3011 22.25 13.5 22.25C13.6989 22.25 13.8897 22.171 14.0303 22.0303C14.171 21.8897 14.25 21.6989 14.25 21.5V20H15C16.0401 20 17.0481 19.6397 17.8526 18.9803C18.657 18.321 19.2082 17.4033 19.4124 16.3834C19.6166 15.3636 19.4612 14.3044 18.9726 13.3862C18.484 12.468 17.6925 11.7473 16.7325 11.3469ZM16.5 8.375C16.5 9.07119 16.2234 9.73887 15.7312 10.2312C15.2389 10.7234 14.5712 11 13.875 11H9V5.75H13.875C14.5712 5.75 15.2389 6.02656 15.7312 6.51884C16.2234 7.01113 16.5 7.67881 16.5 8.375ZM15 18.5H9V12.5H15C15.7956 12.5 16.5587 12.8161 17.1213 13.3787C17.6839 13.9413 18 14.7044 18 15.5C18 16.2956 17.6839 17.0587 17.1213 17.6213C16.5587 18.1839 15.7956 18.5 15 18.5Z" fill="currentColor" fill-opacity="0.95"/>
</svg>