<svg width="24" height="25" viewBox="0 0 24 25" fill="none" xmlns="http://www.w3.org/2000/svg">
  <path d="M18.75 13.25C18.75 13.4489 18.671 13.6397 18.5303 13.7803C18.3897 13.921 18.1989 14 18 14H6C5.80109 14 5.61032 13.921 5.46967 13.7803C5.32902 13.6397 5.25 13.4489 5.25 13.25C5.25 13.0511 5.32902 12.8603 5.46967 12.7197C5.61032 12.579 5.80109 12.5 6 12.5H18C18.1989 12.5 18.3897 12.579 18.5303 12.7197C18.671 12.8603 18.75 13.0511 18.75 13.25ZM21.75 8H2.25C2.05109 8 1.86032 8.07902 1.71967 8.21967C1.57902 8.36032 1.5 8.55109 1.5 8.75C1.5 8.94891 1.57902 9.13968 1.71967 9.28033C1.86032 9.42098 2.05109 9.5 2.25 9.5H21.75C21.9489 9.5 22.1397 9.42098 22.2803 9.28033C22.421 9.13968 22.5 8.94891 22.5 8.75C22.5 8.55109 22.421 8.36032 22.2803 8.21967C22.1397 8.07902 21.9489 8 21.75 8ZM14.25 17H9.75C9.55109 17 9.36032 17.079 9.21967 17.2197C9.07902 17.3603 9 17.5511 9 17.75C9 17.9489 9.07902 18.1397 9.21967 18.2803C9.36032 18.421 9.55109 18.5 9.75 18.5H14.25C14.4489 18.5 14.6397 18.421 14.7803 18.2803C14.921 18.1397 15 17.9489 15 17.75C15 17.5511 14.921 17.3603 14.7803 17.2197C14.6397 17.079 14.4489 17 14.25 17Z" fill="currentColor" fill-opacity="0.95"/>
</svg>