<svg width="24" height="25" viewBox="0 0 24 25" fill="none" xmlns="http://www.w3.org/2000/svg">
  <path d="M12 7.99998C11.11 7.99998 10.24 8.2639 9.49993 8.75837C8.75991 9.25284 8.18313 9.95564 7.84254 10.7779C7.50194 11.6002 7.41283 12.505 7.58646 13.3779C7.7601 14.2508 8.18868 15.0526 8.81801 15.682C9.44735 16.3113 10.2492 16.7399 11.1221 16.9135C11.995 17.0871 12.8998 16.998 13.7221 16.6574C14.5443 16.3168 15.2471 15.7401 15.7416 15C16.2361 14.26 16.5 13.39 16.5 12.5C16.4988 11.3069 16.0243 10.163 15.1806 9.31937C14.337 8.47573 13.1931 8.00122 12 7.99998ZM12 15.5C11.4067 15.5 10.8266 15.324 10.3333 14.9944C9.83994 14.6647 9.45542 14.1962 9.22836 13.648C9.00129 13.0999 8.94188 12.4967 9.05764 11.9147C9.17339 11.3328 9.45912 10.7982 9.87867 10.3787C10.2982 9.9591 10.8328 9.67338 11.4147 9.55763C11.9967 9.44187 12.5999 9.50128 13.148 9.72834C13.6962 9.95541 14.1648 10.3399 14.4944 10.8333C14.824 11.3266 15 11.9066 15 12.5C15 13.2956 14.6839 14.0587 14.1213 14.6213C13.5587 15.1839 12.7956 15.5 12 15.5ZM22.3069 10.5509C22.286 10.4453 22.2426 10.3454 22.1797 10.2581C22.1167 10.1707 22.0357 10.0979 21.9422 10.0447L19.1456 8.45092L19.1344 5.29904C19.134 5.1905 19.1101 5.08331 19.0643 4.9849C19.0185 4.88649 18.9519 4.79919 18.8691 4.72904C17.8546 3.87095 16.6864 3.21336 15.4266 2.79123C15.3273 2.75765 15.2222 2.74522 15.1179 2.75475C15.0136 2.76428 14.9124 2.79555 14.8209 2.84654L12 4.42342L9.17624 2.84373C9.0847 2.79245 8.98341 2.76094 8.87893 2.75125C8.77445 2.74156 8.6691 2.7539 8.56968 2.78748C7.31076 3.21269 6.14389 3.87279 5.13093 4.73279C5.04822 4.80284 4.98166 4.88999 4.93586 4.98823C4.89006 5.08647 4.8661 5.19347 4.86562 5.30186L4.85156 8.45654L2.055 10.0503C1.96143 10.1036 1.88044 10.1763 1.81751 10.2637C1.75458 10.3511 1.7112 10.4509 1.69031 10.5565C1.43437 11.8427 1.43437 13.1667 1.69031 14.4528C1.7112 14.5584 1.75458 14.6583 1.81751 14.7456C1.88044 14.833 1.96143 14.9058 2.055 14.959L4.85156 16.5528L4.86281 19.7047C4.86315 19.8132 4.88705 19.9204 4.93285 20.0188C4.97866 20.1172 5.04528 20.2045 5.12812 20.2747C6.14256 21.1328 7.31077 21.7904 8.57062 22.2125C8.66983 22.2461 8.77498 22.2585 8.87929 22.249C8.9836 22.2394 9.08476 22.2082 9.17624 22.1572L12 20.5765L14.8237 22.1562C14.9355 22.2185 15.0615 22.2508 15.1894 22.25C15.2713 22.25 15.3526 22.2367 15.4303 22.2106C16.6891 21.786 17.8559 21.1265 18.8691 20.2672C18.9518 20.1971 19.0183 20.11 19.0641 20.0117C19.1099 19.9135 19.1339 19.8065 19.1344 19.6981L19.1484 16.5434L21.945 14.9497C22.0386 14.8964 22.1196 14.8236 22.1825 14.7363C22.2454 14.6489 22.2888 14.549 22.3097 14.4434C22.5642 13.1583 22.5632 11.8357 22.3069 10.5509ZM20.9006 13.8237L18.2222 15.3472C18.1048 15.4139 18.0077 15.5111 17.9409 15.6284C17.8866 15.7222 17.8294 15.8215 17.7712 15.9153C17.6968 16.0335 17.6572 16.1703 17.6569 16.31L17.6428 19.3334C16.9229 19.8988 16.1208 20.3509 15.2644 20.674L12.5625 19.1684C12.4503 19.1064 12.3241 19.0741 12.1959 19.0747H12.1781C12.0647 19.0747 11.9503 19.0747 11.8369 19.0747C11.7027 19.0713 11.5701 19.1037 11.4525 19.1684L8.74874 20.6778C7.89047 20.3571 7.0862 19.9072 6.36375 19.3437L6.35343 16.325C6.35297 16.185 6.31335 16.048 6.23906 15.9294C6.18093 15.8356 6.12375 15.7419 6.07031 15.6425C6.00405 15.5233 5.90689 15.4242 5.78906 15.3556L3.10781 13.8284C2.96906 12.9507 2.96906 12.0567 3.10781 11.179L5.78156 9.65279C5.89891 9.58607 5.99608 9.4889 6.06281 9.37154C6.11718 9.27779 6.17437 9.17842 6.2325 9.08467C6.3069 8.96644 6.34653 8.82967 6.34687 8.68998L6.36093 5.66654C7.08087 5.10118 7.88293 4.64909 8.73937 4.32592L11.4375 5.83154C11.5549 5.89663 11.6877 5.92901 11.8219 5.92529C11.9353 5.92529 12.0497 5.92529 12.1631 5.92529C12.2973 5.92865 12.4299 5.89629 12.5475 5.83154L15.2512 4.32217C16.1095 4.64286 16.9138 5.09274 17.6362 5.65623L17.6466 8.67498C17.647 8.81495 17.6866 8.95199 17.7609 9.07061C17.8191 9.16436 17.8762 9.25811 17.9297 9.35748C17.9959 9.47665 18.0931 9.57575 18.2109 9.64436L20.8922 11.1715C21.0328 12.0499 21.0344 12.9449 20.8969 13.8237H20.9006Z" fill="currentColor" fill-opacity="0.95"/>
</svg>