<svg width="24" height="25" viewBox="0 0 24 25" fill="none" xmlns="http://www.w3.org/2000/svg">
  <path d="M19.4119 7.31279C18.4397 6.3384 17.2842 5.56611 16.0121 5.04043C14.74 4.51476 13.3764 4.24611 12 4.24998H11.9625C6.19406 4.26967 1.5 9.03123 1.5 14.8559V17C1.5 17.3978 1.65804 17.7793 1.93934 18.0606C2.22064 18.3419 2.60218 18.5 3 18.5H21C21.3978 18.5 21.7794 18.3419 22.0607 18.0606C22.342 17.7793 22.5 17.3978 22.5 17V14.75C22.5039 13.3675 22.2328 11.9981 21.7027 10.7213C21.1725 9.44455 20.3938 8.28592 19.4119 7.31279ZM21 17H11.2228L16.3566 9.9406C16.4737 9.77973 16.5221 9.57893 16.4911 9.38237C16.4602 9.18581 16.3524 9.00959 16.1916 8.89248C16.0307 8.77537 15.8299 8.72696 15.6333 8.75791C15.4368 8.78885 15.2605 8.89661 15.1434 9.05748L9.3675 17H3V14.8559C3 14.5672 3.01406 14.2822 3.04031 14H5.25C5.44891 14 5.63968 13.921 5.78033 13.7803C5.92098 13.6397 6 13.4489 6 13.25C6 13.0511 5.92098 12.8603 5.78033 12.7197C5.63968 12.579 5.44891 12.5 5.25 12.5H3.30656C4.27406 8.85686 7.43156 6.10248 11.25 5.78186V7.99998C11.25 8.19889 11.329 8.38966 11.4697 8.53031C11.6103 8.67096 11.8011 8.74998 12 8.74998C12.1989 8.74998 12.3897 8.67096 12.5303 8.53031C12.671 8.38966 12.75 8.19889 12.75 7.99998V5.78092C14.6106 5.9375 16.3767 6.66807 17.8042 7.87169C19.2316 9.07531 20.2501 10.6926 20.7188 12.5H18.75C18.5511 12.5 18.3603 12.579 18.2197 12.7197C18.079 12.8603 18 13.0511 18 13.25C18 13.4489 18.079 13.6397 18.2197 13.7803C18.3603 13.921 18.5511 14 18.75 14H20.9691C20.9888 14.2484 21 14.4978 21 14.75V17Z" fill="currentColor" fill-opacity="0.95"/>
</svg>