<svg width="24" height="25" viewBox="0 0 24 25" fill="none" xmlns="http://www.w3.org/2000/svg">
  <path d="M19.5 13.25H4.5C4.10218 13.25 3.72064 13.408 3.43934 13.6893C3.15804 13.9706 3 14.3522 3 14.75V19.25C3 19.6478 3.15804 20.0294 3.43934 20.3107C3.72064 20.592 4.10218 20.75 4.5 20.75H19.5C19.8978 20.75 20.2794 20.592 20.5607 20.3107C20.842 20.0294 21 19.6478 21 19.25V14.75C21 14.3522 20.842 13.9706 20.5607 13.6893C20.2794 13.408 19.8978 13.25 19.5 13.25ZM19.5 19.25H4.5V14.75H19.5V19.25ZM19.5 4.25H4.5C4.10218 4.25 3.72064 4.40804 3.43934 4.68934C3.15804 4.97064 3 5.35218 3 5.75V10.25C3 10.6478 3.15804 11.0294 3.43934 11.3107C3.72064 11.592 4.10218 11.75 4.5 11.75H19.5C19.8978 11.75 20.2794 11.592 20.5607 11.3107C20.842 11.0294 21 10.6478 21 10.25V5.75C21 5.35218 20.842 4.97064 20.5607 4.68934C20.2794 4.40804 19.8978 4.25 19.5 4.25ZM19.5 10.25H4.5V5.75H19.5V10.25ZM18 8C18 8.2225 17.934 8.44001 17.8104 8.62502C17.6868 8.81002 17.5111 8.95422 17.3055 9.03936C17.1 9.12451 16.8738 9.14679 16.6555 9.10338C16.4373 9.05998 16.2368 8.95283 16.0795 8.7955C15.9222 8.63816 15.815 8.43771 15.7716 8.21948C15.7282 8.00125 15.7505 7.77505 15.8356 7.56948C15.9208 7.36391 16.065 7.18821 16.25 7.0646C16.435 6.94098 16.6525 6.875 16.875 6.875C17.1734 6.875 17.4595 6.99353 17.6705 7.2045C17.8815 7.41548 18 7.70163 18 8ZM18 17C18 17.2225 17.934 17.44 17.8104 17.625C17.6868 17.81 17.5111 17.9542 17.3055 18.0394C17.1 18.1245 16.8738 18.1468 16.6555 18.1034C16.4373 18.06 16.2368 17.9528 16.0795 17.7955C15.9222 17.6382 15.815 17.4377 15.7716 17.2195C15.7282 17.0012 15.7505 16.775 15.8356 16.5695C15.9208 16.3639 16.065 16.1882 16.25 16.0646C16.435 15.941 16.6525 15.875 16.875 15.875C17.1734 15.875 17.4595 15.9935 17.6705 16.2045C17.8815 16.4155 18 16.7016 18 17Z" fill="currentColor" fill-opacity="0.95"/>
</svg>