<svg width="24" height="25" viewBox="0 0 24 25" fill="none" xmlns="http://www.w3.org/2000/svg">
  <path d="M22.8975 6.12499C22.7895 6.05761 22.6662 6.01881 22.5391 6.01225C22.412 6.00569 22.2853 6.03158 22.1709 6.08749C18.1462 8.05624 15.2719 7.13374 12.2334 6.16062C9.04594 5.13968 5.74125 4.08499 1.17563 6.31437C1.04806 6.37556 0.940404 6.47159 0.865091 6.59136C0.789777 6.71113 0.749878 6.84976 0.75 6.99124V18.2347C0.749982 18.3619 0.782343 18.4871 0.844035 18.5984C0.905728 18.7097 0.994725 18.8035 1.10265 18.8709C1.21058 18.9383 1.33388 18.9771 1.46096 18.9838C1.58804 18.9904 1.71471 18.9646 1.82906 18.9087C5.85375 16.94 8.72812 17.8625 11.7712 18.8356C13.575 19.4122 15.4125 20 17.49 20C19.0922 20 20.8397 19.6512 22.8253 18.6819C22.9514 18.6203 23.0577 18.5246 23.1322 18.4056C23.2066 18.2866 23.2461 18.1491 23.2463 18.0087V6.76531C23.2474 6.63772 23.2159 6.51196 23.1549 6.39992C23.0939 6.28787 23.0053 6.19325 22.8975 6.12499ZM21.75 17.5316C17.9438 19.235 15.1641 18.3462 12.2288 17.4078C10.425 16.8312 8.5875 16.2434 6.51 16.2434C5.05041 16.2505 3.60567 16.5369 2.25375 17.0872V7.46843C6.06 5.76499 8.83969 6.65374 11.775 7.59218C14.7103 8.53062 17.7319 9.49999 21.75 7.91468V17.5316ZM12 9.49999C11.4067 9.49999 10.8266 9.67594 10.3333 10.0056C9.83994 10.3352 9.45542 10.8038 9.22836 11.3519C9.0013 11.9001 8.94189 12.5033 9.05764 13.0853C9.1734 13.6672 9.45912 14.2018 9.87868 14.6213C10.2982 15.0409 10.8328 15.3266 11.4147 15.4424C11.9967 15.5581 12.5999 15.4987 13.1481 15.2716C13.6962 15.0446 14.1648 14.6601 14.4944 14.1667C14.8241 13.6734 15 13.0933 15 12.5C15 11.7043 14.6839 10.9413 14.1213 10.3787C13.5587 9.81606 12.7956 9.49999 12 9.49999ZM12 14C11.7033 14 11.4133 13.912 11.1666 13.7472C10.92 13.5824 10.7277 13.3481 10.6142 13.074C10.5006 12.7999 10.4709 12.4983 10.5288 12.2074C10.5867 11.9164 10.7296 11.6491 10.9393 11.4393C11.1491 11.2296 11.4164 11.0867 11.7074 11.0288C11.9983 10.9709 12.2999 11.0006 12.574 11.1142C12.8481 11.2277 13.0824 11.42 13.2472 11.6666C13.412 11.9133 13.5 12.2033 13.5 12.5C13.5 12.8978 13.342 13.2793 13.0607 13.5607C12.7794 13.842 12.3978 14 12 14ZM5.25 9.49999V14C5.25 14.1989 5.17098 14.3897 5.03033 14.5303C4.88968 14.671 4.69891 14.75 4.5 14.75C4.30109 14.75 4.11032 14.671 3.96967 14.5303C3.82902 14.3897 3.75 14.1989 3.75 14V9.49999C3.75 9.30108 3.82902 9.11032 3.96967 8.96966C4.11032 8.82901 4.30109 8.74999 4.5 8.74999C4.69891 8.74999 4.88968 8.82901 5.03033 8.96966C5.17098 9.11032 5.25 9.30108 5.25 9.49999ZM18.75 15.5V11C18.75 10.8011 18.829 10.6103 18.9697 10.4697C19.1103 10.329 19.3011 10.25 19.5 10.25C19.6989 10.25 19.8897 10.329 20.0303 10.4697C20.171 10.6103 20.25 10.8011 20.25 11V15.5C20.25 15.6989 20.171 15.8897 20.0303 16.0303C19.8897 16.171 19.6989 16.25 19.5 16.25C19.3011 16.25 19.1103 16.171 18.9697 16.0303C18.829 15.8897 18.75 15.6989 18.75 15.5Z" fill="currentColor" fill-opacity="0.95"/>
</svg>