<svg width="24" height="25" viewBox="0 0 24 25" fill="none" xmlns="http://www.w3.org/2000/svg">
  <path d="M12 2.75C10.0716 2.75 8.18657 3.32183 6.58319 4.39317C4.97982 5.46451 3.73013 6.98726 2.99218 8.76884C2.25422 10.5504 2.06114 12.5108 2.43735 14.4021C2.81355 16.2934 3.74215 18.0307 5.10571 19.3943C6.46928 20.7579 8.20656 21.6865 10.0979 22.0627C11.9892 22.4389 13.9496 22.2458 15.7312 21.5078C17.5127 20.7699 19.0355 19.5202 20.1068 17.9168C21.1782 16.3134 21.75 14.4284 21.75 12.5C21.7473 9.91498 20.7192 7.43661 18.8913 5.60872C17.0634 3.78084 14.585 2.75273 12 2.75ZM12 20.75C10.3683 20.75 8.77326 20.2661 7.41655 19.3596C6.05984 18.4531 5.00242 17.1646 4.378 15.6571C3.75358 14.1496 3.5902 12.4908 3.90853 10.8905C4.22685 9.29016 5.01259 7.82015 6.16637 6.66637C7.32016 5.51259 8.79017 4.72685 10.3905 4.40852C11.9909 4.09019 13.6497 4.25357 15.1571 4.87799C16.6646 5.50242 17.9531 6.55984 18.8596 7.91655C19.7661 9.27325 20.25 10.8683 20.25 12.5C20.2475 14.6873 19.3775 16.7843 17.8309 18.3309C16.2843 19.8775 14.1873 20.7475 12 20.75ZM16.5225 11.8644L10.5225 8.11438C10.409 8.04344 10.2786 8.00416 10.1448 8.00063C10.011 7.9971 9.87868 8.02945 9.76159 8.0943C9.64451 8.15916 9.54691 8.25416 9.47893 8.36946C9.41096 8.48476 9.37507 8.61615 9.375 8.75V16.25C9.37507 16.3838 9.41096 16.5152 9.47893 16.6305C9.54691 16.7458 9.64451 16.8408 9.76159 16.9057C9.87868 16.9706 10.011 17.0029 10.1448 16.9994C10.2786 16.9958 10.409 16.9566 10.5225 16.8856L16.5225 13.1356C16.6302 13.0682 16.719 12.9745 16.7806 12.8633C16.8421 12.7521 16.8744 12.6271 16.8744 12.5C16.8744 12.3729 16.8421 12.2479 16.7806 12.1367C16.719 12.0255 16.6302 11.9318 16.5225 11.8644ZM10.875 14.8972V10.1028L14.7103 12.5L10.875 14.8972Z" fill="currentColor" fill-opacity="0.95"/>
</svg>