<svg width="24" height="25" viewBox="0 0 24 25" fill="none" xmlns="http://www.w3.org/2000/svg">
  <path d="M21.6478 12.125C21.7469 12.2969 21.7738 12.501 21.7226 12.6927C21.6715 12.8844 21.5465 13.0481 21.375 13.1478L12.375 18.3978C12.2603 18.4647 12.1299 18.4999 11.9972 18.4999C11.8644 18.4999 11.7341 18.4647 11.6194 18.3978L2.61938 13.1478C2.45034 13.0462 2.32811 12.8822 2.27916 12.6911C2.2302 12.5001 2.25846 12.2974 2.35781 12.1271C2.45717 11.9567 2.61962 11.8324 2.81 11.7809C3.00037 11.7295 3.20336 11.7551 3.375 11.8522L12 16.8819L20.625 11.8522C20.7969 11.7531 21.0011 11.7262 21.1927 11.7773C21.3844 11.8285 21.5481 11.9535 21.6478 12.125ZM2.25 7.99999C2.2503 7.86862 2.2851 7.73964 2.35091 7.62595C2.41672 7.51227 2.51124 7.41786 2.625 7.35217L11.625 2.10217C11.7397 2.0353 11.8701 2.00006 12.0028 2.00006C12.1356 2.00006 12.2659 2.0353 12.3806 2.10217L21.3806 7.35217C21.4938 7.41823 21.5878 7.5128 21.6531 7.62646C21.7183 7.74012 21.7527 7.86891 21.7527 7.99999C21.7527 8.13106 21.7183 8.25985 21.6531 8.37351C21.5878 8.48718 21.4938 8.58175 21.3806 8.6478L12.3806 13.8978C12.2659 13.9647 12.1356 13.9999 12.0028 13.9999C11.8701 13.9999 11.7397 13.9647 11.625 13.8978L2.625 8.6478C2.51124 8.58212 2.41672 8.48771 2.35091 8.37402C2.2851 8.26033 2.2503 8.13135 2.25 7.99999ZM4.48875 7.99999L12 12.3819L19.5112 7.99999L12 3.61811L4.48875 7.99999ZM21.75 18.5H17.25C17.0511 18.5 16.8603 18.579 16.7197 18.7197C16.579 18.8603 16.5 19.0511 16.5 19.25C16.5 19.4489 16.579 19.6397 16.7197 19.7803C16.8603 19.921 17.0511 20 17.25 20H21.75C21.9489 20 22.1397 19.921 22.2803 19.7803C22.421 19.6397 22.5 19.4489 22.5 19.25C22.5 19.0511 22.421 18.8603 22.2803 18.7197C22.1397 18.579 21.9489 18.5 21.75 18.5ZM13.125 20.7275L12 21.3837L3.375 16.3522C3.20423 16.2671 3.00748 16.2504 2.82479 16.3053C2.6421 16.3602 2.4872 16.4827 2.39163 16.6478C2.29606 16.8129 2.26699 17.0082 2.31035 17.194C2.3537 17.3798 2.46622 17.5421 2.625 17.6478L11.625 22.8978C11.7397 22.9647 11.8701 22.9999 12.0028 22.9999C12.1356 22.9999 12.2659 22.9647 12.3806 22.8978L13.8806 22.0231C13.9671 21.9742 14.0429 21.9086 14.1038 21.8302C14.1647 21.7517 14.2094 21.6619 14.2353 21.566C14.2612 21.4702 14.2679 21.3701 14.2548 21.2716C14.2417 21.1732 14.2092 21.0783 14.1592 20.9925C14.1091 20.9067 14.0426 20.8317 13.9633 20.7718C13.884 20.712 13.7937 20.6685 13.6975 20.6438C13.6013 20.6192 13.5011 20.6139 13.4028 20.6282C13.3046 20.6426 13.2101 20.6763 13.125 20.7275Z" fill="currentColor" fill-opacity="0.95"/>
</svg>