<svg width="24" height="25" viewBox="0 0 24 25" fill="none" xmlns="http://www.w3.org/2000/svg">
  <path d="M12 2.75C10.0716 2.75 8.18657 3.32183 6.58319 4.39317C4.97982 5.46451 3.73013 6.98726 2.99218 8.76884C2.25422 10.5504 2.06114 12.5108 2.43735 14.4021C2.81355 16.2934 3.74215 18.0307 5.10571 19.3943C6.46928 20.7579 8.20656 21.6865 10.0979 22.0627C11.9892 22.4389 13.9496 22.2458 15.7312 21.5078C17.5127 20.7699 19.0355 19.5202 20.1068 17.9168C21.1782 16.3134 21.75 14.4284 21.75 12.5C21.7473 9.91498 20.7192 7.43661 18.8913 5.60872C17.0634 3.78084 14.585 2.75273 12 2.75ZM15.6656 15.1053C16.2083 14.3449 16.4999 13.4341 16.4999 12.5C16.4999 11.5659 16.2083 10.655 15.6656 9.89469L18.3375 7.22375C19.5732 8.70427 20.2501 10.5715 20.2501 12.5C20.2501 14.4285 19.5732 16.2957 18.3375 17.7762L15.6656 15.1053ZM9 12.5C9 11.9067 9.17595 11.3266 9.5056 10.8333C9.83524 10.3399 10.3038 9.95542 10.852 9.72836C11.4001 9.5013 12.0033 9.44189 12.5853 9.55764C13.1672 9.6734 13.7018 9.95912 14.1213 10.3787C14.5409 10.7982 14.8266 11.3328 14.9424 11.9147C15.0581 12.4967 14.9987 13.0999 14.7716 13.6481C14.5446 14.1962 14.1601 14.6648 13.6667 14.9944C13.1734 15.3241 12.5933 15.5 12 15.5C11.2044 15.5 10.4413 15.1839 9.87868 14.6213C9.31607 14.0587 9 13.2956 9 12.5ZM17.2763 6.1625L14.6053 8.83438C13.845 8.29174 12.9341 8.00007 12 8.00007C11.0659 8.00007 10.1551 8.29174 9.39469 8.83438L6.72375 6.1625C8.20427 4.92678 10.0715 4.24991 12 4.24991C13.9285 4.24991 15.7957 4.92678 17.2763 6.1625ZM5.6625 7.22375L8.33438 9.89469C7.79175 10.655 7.50007 11.5659 7.50007 12.5C7.50007 13.4341 7.79175 14.3449 8.33438 15.1053L5.6625 17.7762C4.42678 16.2957 3.74991 14.4285 3.74991 12.5C3.74991 10.5715 4.42678 8.70427 5.6625 7.22375ZM6.72375 18.8375L9.39469 16.1656C10.1551 16.7083 11.0659 16.9999 12 16.9999C12.9341 16.9999 13.845 16.7083 14.6053 16.1656L17.2763 18.8375C15.7957 20.0732 13.9285 20.7501 12 20.7501C10.0715 20.7501 8.20427 20.0732 6.72375 18.8375Z" fill="currentColor" fill-opacity="0.95"/>
</svg>